<svg width="129" height="31" viewBox="0 0 129 31" fill="none" xmlns="http://www.w3.org/2000/svg">
<path d="M59.2424 16.2073L57.2382 11.0687C57.2196 11.0224 57.187 10.9826 57.1445 10.9545C57.102 10.9264 57.0517 10.9114 57.0002 10.9114C56.9487 10.9114 56.8984 10.9264 56.8559 10.9545C56.8134 10.9826 56.7808 11.0224 56.7622 11.0687L54.758 16.2081C54.7441 16.2446 54.7396 16.2838 54.745 16.3223C54.7504 16.3608 54.7655 16.3974 54.789 16.429C54.8124 16.4606 54.8435 16.4861 54.8796 16.5035C54.9157 16.5209 54.9556 16.5294 54.9959 16.5285H59.0215C59.0814 16.5291 59.1394 16.5079 59.1837 16.469C59.228 16.4302 59.2554 16.3766 59.2603 16.319C59.264 16.2812 59.2579 16.2431 59.2424 16.2081V16.2073ZM60.1763 19.0909H53.8241C53.7722 19.0912 53.7217 19.1067 53.6792 19.1353C53.6367 19.1639 53.6043 19.2043 53.5861 19.2511L52.329 22.4567C52.3109 22.5033 52.2785 22.5436 52.2362 22.5722C52.1939 22.6008 52.1436 22.6163 52.0919 22.6168H49.3379C49.2959 22.6174 49.2543 22.6079 49.217 22.5891C49.1798 22.5704 49.1479 22.5429 49.1244 22.5094C49.1009 22.4758 49.0864 22.4371 49.0823 22.3967C49.0782 22.3564 49.0845 22.3157 49.1008 22.2784L55.436 7.29954C55.4549 7.25421 55.4882 7.21576 55.531 7.18966C55.5739 7.16356 55.6242 7.15112 55.6748 7.15413H58.3068C58.3568 7.15442 58.4056 7.1682 58.4478 7.19391C58.49 7.21961 58.5239 7.25621 58.5456 7.29954L64.88 22.2784C64.8962 22.3159 64.9026 22.3566 64.8984 22.3971C64.8942 22.4375 64.8797 22.4763 64.8561 22.5099C64.8325 22.5436 64.8006 22.5711 64.7632 22.5899C64.7258 22.6087 64.6842 22.6182 64.642 22.6177H61.8923C61.8404 22.6173 61.7898 22.6017 61.7473 22.5729C61.7048 22.5441 61.6724 22.5036 61.6544 22.4567L60.3972 19.2511C60.3853 19.2038 60.3568 19.162 60.3165 19.1327C60.2763 19.1033 60.2268 19.0883 60.1763 19.09V19.0909ZM66.1891 12.4053H68.5508C68.6174 12.4065 68.681 12.4324 68.7285 12.4775C68.7759 12.5226 68.8036 12.5835 68.8058 12.6477V22.377C68.8036 22.441 68.7759 22.5017 68.7284 22.5466C68.6809 22.5914 68.6172 22.6169 68.5508 22.6177H66.19C66.1233 22.6171 66.0595 22.5917 66.0118 22.5468C65.9642 22.502 65.9363 22.4411 65.9341 22.377V12.6477C65.9338 12.6154 65.9402 12.5834 65.953 12.5536C65.9657 12.5237 65.9846 12.4967 66.0085 12.4741C66.0324 12.4514 66.0608 12.4337 66.092 12.4219C66.1232 12.4101 66.1565 12.4044 66.19 12.4053H66.1891ZM77.4011 14.7729C77.3991 14.8373 77.3716 14.8984 77.3241 14.9437C77.2766 14.9889 77.2129 15.0149 77.1461 15.0161H77.0778C75.906 15.0161 75.0565 15.2724 74.5132 15.8048C73.97 16.3371 73.6979 17.2063 73.6979 18.4287V22.3597C73.6957 22.4237 73.6682 22.4846 73.6209 22.5296C73.5736 22.5747 73.5102 22.6006 73.4437 22.6021H71.1154C71.0489 22.6006 70.9855 22.5747 70.9382 22.5296C70.8909 22.4846 70.8634 22.4237 70.8612 22.3597V12.6477C70.8634 12.5835 70.891 12.5226 70.9385 12.4775C70.986 12.4324 71.0496 12.4065 71.1162 12.4053H73.4258C73.4926 12.4063 73.5564 12.4321 73.6041 12.4772C73.6517 12.5223 73.6795 12.5833 73.6817 12.6477V14.5643H73.732C73.9678 13.8362 74.4302 13.1956 75.0565 12.729C75.7112 12.2842 76.499 12.058 77.2996 12.0849H77.4181V14.7738H77.4011V14.7729ZM83.8386 14.6776C83.7724 14.6787 83.7091 14.7041 83.6619 14.7487C83.6146 14.7934 83.5869 14.8538 83.5845 14.9175V18.9611C83.5529 19.2774 83.6433 19.5928 83.8386 19.8483C84.0092 20.0241 84.2975 20.1046 84.7222 20.1046H84.9602C85.0267 20.1061 85.0901 20.132 85.1373 20.1771C85.1846 20.2221 85.2122 20.2829 85.2143 20.347V22.3761C85.2121 22.44 85.1845 22.5006 85.1372 22.5455C85.0899 22.5903 85.0265 22.6158 84.9602 22.6168H83.9589C82.9218 22.6168 82.1243 22.3589 81.564 21.8594C81.0028 21.3451 80.7316 20.6033 80.7316 19.5895V14.9175C80.7292 14.8535 80.7012 14.7929 80.6536 14.7482C80.6059 14.7035 80.5422 14.6782 80.4757 14.6776H78.9985C78.9319 14.6762 78.8684 14.6502 78.8211 14.6049C78.7738 14.5597 78.7463 14.4987 78.7444 14.4345V12.6477C78.7463 12.5836 78.7738 12.5226 78.8211 12.4775C78.8684 12.4324 78.932 12.4065 78.9985 12.4053H80.4766C80.5431 12.4045 80.6067 12.379 80.6542 12.3342C80.7017 12.2894 80.7294 12.2286 80.7316 12.1646V8.55565C80.7338 8.49163 80.7615 8.43088 80.809 8.38605C80.8565 8.34122 80.9201 8.31575 80.9866 8.31494H83.3474C83.4139 8.31575 83.4775 8.34122 83.525 8.38605C83.5725 8.43088 83.6002 8.49163 83.6024 8.55565V12.1646C83.6046 12.2286 83.6323 12.2894 83.6798 12.3342C83.7273 12.379 83.7909 12.4045 83.8574 12.4053H85.5555C85.6221 12.4065 85.6857 12.4324 85.7332 12.4775C85.7806 12.5226 85.8083 12.5835 85.8105 12.6477V14.4345C85.8085 14.4988 85.781 14.5599 85.7335 14.6052C85.686 14.6505 85.6223 14.6764 85.5555 14.6776H83.8386V14.6776ZM94.625 19.5739C94.8966 19.2972 95.1073 18.9704 95.2445 18.6132C95.3817 18.256 95.4425 17.8759 95.4233 17.4955C95.4385 17.1155 95.3758 16.7364 95.2388 16.3798C95.1018 16.0231 94.8933 15.696 94.625 15.417C94.0499 14.9099 93.2985 14.6286 92.5188 14.6286C91.7391 14.6286 90.9877 14.9099 90.4126 15.417C90.141 15.6938 89.9303 16.0206 89.7931 16.3777C89.656 16.7349 89.5951 17.1151 89.6143 17.4955C89.5992 17.8754 89.6619 18.2546 89.7988 18.6112C89.9358 18.9678 90.1444 19.295 90.4126 19.5739C90.6883 19.8383 91.0177 20.0448 91.3803 20.1805C91.7428 20.3163 92.1306 20.3782 92.5192 20.3626C92.9085 20.3835 93.2978 20.3239 93.6612 20.1879C94.0245 20.0518 94.3534 19.8425 94.6259 19.5739H94.625ZM89.1887 22.2965C88.3911 21.8608 87.7421 21.2112 87.3209 20.4267C86.8734 19.5095 86.6414 18.5085 86.6414 17.4951C86.6414 16.4816 86.8734 15.4807 87.3209 14.5635C87.7472 13.7827 88.395 13.1345 89.1887 12.6945C89.9864 12.2621 90.8884 12.0399 91.8037 12.0504C92.552 12.0327 93.2933 12.1936 93.9615 12.5187C94.5521 12.8199 95.0456 13.2714 95.3883 13.8241H95.4395V12.6296C95.4419 12.5658 95.4696 12.5053 95.5168 12.4605C95.5641 12.4157 95.6274 12.3901 95.6937 12.3889H98.0212C98.0876 12.3899 98.1511 12.4154 98.1985 12.4602C98.246 12.505 98.2738 12.5656 98.2762 12.6296V22.3581C98.2742 22.4225 98.2465 22.4838 98.1989 22.5291C98.1512 22.5744 98.0873 22.6002 98.0203 22.6012H95.6954C95.6286 22.6 95.5648 22.5741 95.5174 22.5288C95.4699 22.4835 95.4423 22.4224 95.4404 22.3581V21.1669H95.3892C95.0465 21.72 94.5526 22.1719 93.9615 22.4731C93.2928 22.7969 92.5518 22.9574 91.8037 22.9405C90.8884 22.951 89.9864 22.7289 89.1887 22.2965V22.2965ZM107.976 19.5739C108.247 19.2971 108.458 18.9703 108.595 18.6132C108.733 18.256 108.793 17.8758 108.774 17.4955C108.789 17.1155 108.727 16.7364 108.59 16.3798C108.453 16.0231 108.244 15.696 107.976 15.417C107.401 14.9096 106.649 14.6282 105.869 14.6282C105.089 14.6282 104.338 14.9096 103.763 15.417C103.491 15.6939 103.281 16.0207 103.144 16.3779C103.007 16.735 102.946 17.1152 102.965 17.4955C102.95 17.8754 103.013 18.2546 103.15 18.6112C103.287 18.9678 103.495 19.295 103.764 19.5739C104.039 19.8383 104.369 20.0448 104.731 20.1805C105.094 20.3163 105.482 20.3782 105.87 20.3626C106.259 20.3834 106.649 20.3237 107.012 20.1877C107.375 20.0517 107.704 19.8424 107.977 19.5739H107.976ZM104.443 22.4723C103.852 22.1709 103.359 21.7191 103.016 21.166H102.964V22.3589C102.962 22.4229 102.935 22.4837 102.887 22.5288C102.84 22.5739 102.777 22.5998 102.71 22.6012H100.349C100.282 22.5998 100.219 22.5739 100.172 22.5288C100.124 22.4837 100.097 22.4229 100.095 22.3589V7.37922C100.097 7.31527 100.124 7.25455 100.172 7.20961C100.219 7.16467 100.282 7.13892 100.349 7.1377H102.71C102.777 7.13871 102.84 7.16424 102.888 7.20903C102.935 7.25382 102.963 7.31445 102.965 7.3784V13.8389H103.016C103.36 13.2864 103.853 12.8348 104.443 12.5326C105.112 12.2089 105.852 12.0484 106.6 12.0652C107.516 12.0545 108.418 12.2776 109.215 12.7117C110.013 13.1465 110.662 13.7953 111.083 14.5791C111.561 15.4859 111.795 16.4937 111.764 17.5103C111.785 18.526 111.552 19.5318 111.084 20.4423C110.657 21.2235 110.009 21.8717 109.216 22.3112C108.418 22.7437 107.516 22.9659 106.6 22.9553C105.851 22.9612 105.112 22.7951 104.443 22.4706L104.443 22.4723ZM115.739 22.6029H113.379C113.312 22.6018 113.248 22.576 113.201 22.5307C113.153 22.4853 113.126 22.4241 113.124 22.3597V7.38004C113.126 7.31581 113.154 7.25486 113.202 7.20987C113.249 7.16488 113.313 7.13933 113.38 7.13852H115.74C115.806 7.13993 115.869 7.16562 115.916 7.21035C115.964 7.25508 115.991 7.31548 115.994 7.37922V22.3589C115.995 22.4061 115.981 22.4525 115.955 22.4921C115.928 22.5318 115.89 22.5629 115.845 22.5815C115.812 22.5954 115.776 22.6021 115.74 22.6012V22.6029H115.739ZM121.294 14.7582C120.883 15.0742 120.601 15.519 120.495 16.0151C120.488 16.0509 120.489 16.0878 120.499 16.1232C120.508 16.1585 120.526 16.1913 120.55 16.2192C120.575 16.247 120.606 16.2692 120.64 16.2841C120.675 16.299 120.713 16.3061 120.75 16.3051H125.235C125.271 16.3052 125.307 16.2979 125.34 16.2838C125.373 16.2696 125.402 16.2489 125.426 16.223C125.45 16.1971 125.468 16.1666 125.479 16.1334C125.49 16.1003 125.494 16.0653 125.49 16.0307C125.422 15.5492 125.174 15.1081 124.792 14.7902C124.301 14.4139 123.687 14.2192 123.06 14.2414C122.429 14.225 121.809 14.4057 121.294 14.7573L121.293 14.7582H121.294ZM127.035 13.502C127.952 14.4509 128.411 15.7924 128.41 17.5275V17.8191C128.408 17.8831 128.38 17.9437 128.332 17.9885C128.285 18.0333 128.222 18.0588 128.155 18.0599H120.666C120.629 18.0606 120.592 18.0689 120.558 18.0842C120.525 18.0996 120.495 18.1217 120.471 18.149C120.446 18.1763 120.428 18.2083 120.418 18.2428C120.408 18.2773 120.405 18.3135 120.41 18.349C120.508 18.9524 120.828 19.5016 121.312 19.896C121.906 20.3439 122.647 20.5721 123.401 20.5392C124.527 20.5241 125.604 20.0915 126.408 19.3316C126.434 19.3082 126.466 19.2908 126.5 19.2805C126.534 19.2703 126.571 19.2674 126.606 19.2721C126.642 19.2768 126.676 19.289 126.706 19.3078C126.736 19.3266 126.762 19.3515 126.781 19.3809L127.919 20.9426C127.951 20.9924 127.965 21.0512 127.959 21.1096C127.953 21.1681 127.927 21.2229 127.885 21.2654C127.32 21.7291 126.699 22.1242 126.034 22.4419C125.206 22.7975 124.307 22.9734 123.4 22.957C122.338 22.9802 121.287 22.7472 120.343 22.2792C119.492 21.8485 118.789 21.1882 118.321 20.379C117.827 19.5113 117.575 18.5345 117.591 17.5448C117.573 16.5534 117.812 15.5732 118.288 14.6941C118.734 13.8875 119.412 13.2222 120.241 12.7783C121.142 12.3051 122.155 12.0662 123.18 12.0849C124.844 12.066 126.118 12.5499 127.035 13.5012V13.502V13.502ZM69.1111 8.79964C69.1159 9.12972 69.0191 9.45377 68.8328 9.73084C68.6464 10.0079 68.379 10.2255 68.0643 10.3562C67.7496 10.4869 67.4017 10.5248 67.0647 10.4651C66.7276 10.4053 66.4165 10.2507 66.1707 10.0207C65.9249 9.79067 65.7553 9.49562 65.6836 9.17282C65.6118 8.85002 65.641 8.51398 65.7675 8.20717C65.894 7.90036 66.1121 7.63657 66.3942 7.44913C66.6763 7.26169 67.0098 7.15903 67.3525 7.15413H67.361C67.8182 7.15209 68.2578 7.3232 68.5852 7.63056C68.9126 7.93792 69.1015 8.35691 69.1111 8.79717V8.79882V8.79964Z" fill="#181D26"/>
<path d="M17.6693 0.487442L3.60526 6.02694C2.82338 6.33525 2.83127 7.39269 3.61848 7.68963L17.7411 13.0207C18.9819 13.4891 20.3638 13.4891 21.6047 13.0207L35.7275 7.68963C36.5143 7.39269 36.5226 6.33525 35.7403 6.02715L21.6767 0.487442C20.3937 -0.0179494 18.9523 -0.0179494 17.6693 0.487442" fill="#FCB400"/>
<path d="M20.9248 15.9323V29.2501C20.9248 29.8834 21.5958 30.3173 22.2144 30.0839L37.9513 24.2694C38.1268 24.2032 38.2774 24.0883 38.3834 23.9396C38.4895 23.7909 38.5462 23.6154 38.5462 23.4356V10.118C38.5462 9.48455 37.8752 9.05082 37.2566 9.28423L21.5197 15.0987C21.3442 15.165 21.1937 15.2799 21.0876 15.4286C20.9815 15.5772 20.9248 15.7528 20.9248 15.9325" fill="#18BFFF"/>
<path d="M17.2503 16.6188L12.5799 18.7654L12.1057 18.9836L2.24682 23.4802C1.62209 23.7672 0.824219 23.3337 0.824219 22.6728V10.1731C0.824219 9.93404 0.953004 9.72763 1.12571 9.57236C1.19656 9.5052 1.27695 9.44782 1.36452 9.40187C1.59991 9.26731 1.93595 9.23139 2.22166 9.33896L17.1718 14.9777C17.9317 15.2647 17.9914 16.2783 17.2503 16.619" fill="#F82B60"/>
<path d="M17.2505 16.6188L12.5802 18.7654L1.12598 9.57216C1.19684 9.50507 1.27723 9.44775 1.36478 9.40187C1.60018 9.26731 1.93621 9.23139 2.22193 9.33896L17.1721 14.9777C17.932 15.2647 17.9917 16.2783 17.2505 16.619" fill="black" fill-opacity="0.25"/>
</svg>
