<svg width="190" height="22" viewBox="0 0 190 22" fill="none" xmlns="http://www.w3.org/2000/svg">
<path d="M55.5719 6.05771V15.3907H57.9829C58.5982 15.3818 59.2054 15.254 59.7686 15.0147C60.3319 14.7754 60.8396 14.4296 61.2619 13.9975C62.1287 13.1119 62.6029 11.9346 62.5836 10.7165C62.602 10.1114 62.4963 9.50883 62.2727 8.94331C62.049 8.37779 61.7118 7.86051 61.2804 7.42116C60.8563 6.98855 60.345 6.6443 59.7779 6.40961C59.2108 6.17492 58.5999 6.05475 57.9829 6.05652H55.5731L55.5719 6.05771ZM57.9829 3.13144C62.4766 3.13144 65.8762 6.49202 65.8762 10.7165C65.8762 14.9409 62.4766 18.3205 57.9829 18.3205H52.6654C52.6147 18.3199 52.5646 18.3096 52.5181 18.2903C52.4715 18.271 52.4293 18.2431 52.3939 18.208C52.3585 18.173 52.3306 18.1315 52.3118 18.0861C52.293 18.0406 52.2836 17.9921 52.2843 17.9431V3.52422C52.2843 3.31537 52.4552 3.14568 52.6654 3.14568L57.9829 3.13144V3.13144ZM77.4591 15.7158C79.5 15.7217 81.343 14.5102 82.1286 12.646C82.5135 11.7351 82.6163 10.7361 82.4247 9.76997C82.2331 8.80385 81.7553 7.9121 81.0491 7.20282C80.3553 6.50518 79.4586 6.02711 78.4773 5.83177C77.4961 5.63642 76.4765 5.733 75.5534 6.10873C73.6673 6.87768 72.4354 8.69681 72.4317 10.7165C72.4317 13.4695 74.6792 15.7028 77.4603 15.7158H77.4591ZM77.4603 2.78732C82.1901 2.78732 85.806 6.38522 85.806 10.7165C85.806 15.0477 82.1901 18.6456 77.4591 18.6456C72.7293 18.6456 69.1441 15.0655 69.1441 10.7165C69.1441 6.36742 72.76 2.78732 77.4591 2.78732H77.4603ZM97.2954 15.7158C100.078 15.7087 102.329 13.473 102.326 10.72C102.323 7.96465 100.067 5.73376 97.2856 5.73257C94.5021 5.73257 92.2447 7.96227 92.2411 10.7165C92.2411 12.0431 92.7734 13.3152 93.7213 14.2527C94.1853 14.7147 94.7406 15.0822 95.3542 15.3335C95.9679 15.5848 96.6276 15.7148 97.2942 15.7158H97.2954ZM97.2942 2.78732C102.009 2.78732 105.625 6.36742 105.625 10.7165C105.625 15.0655 101.994 18.6456 97.2942 18.6456C92.5951 18.6456 88.9485 15.0655 88.9485 10.7165C88.9485 6.36742 92.5644 2.78732 97.2942 2.78732ZM116.654 6.05771H113.254V10.0745H116.654C116.922 10.086 117.19 10.0442 117.442 9.95177C117.693 9.85931 117.922 9.71813 118.114 9.53695C118.508 9.16909 118.731 8.65883 118.736 8.12247C118.746 7.85036 118.699 7.57912 118.598 7.32504C118.496 7.07096 118.343 6.83928 118.146 6.64391C117.953 6.45164 117.721 6.30047 117.464 6.20013C117.207 6.09978 116.931 6.05248 116.654 6.06127V6.05771ZM109.965 3.52422C109.965 3.31537 110.137 3.14568 110.348 3.14568H116.748C119.8 3.14568 122.008 5.35878 122.008 8.1379C122.031 10.0175 120.968 11.7441 119.27 12.5854L122.222 17.7509C122.263 17.8103 122.286 17.8794 122.288 17.9506C122.291 18.0218 122.273 18.0924 122.237 18.1544C122.201 18.2154 122.148 18.2653 122.084 18.2981C122.02 18.3309 121.947 18.3453 121.875 18.3395H119.285C119.213 18.3405 119.142 18.3218 119.081 18.2857C119.019 18.2496 118.97 18.1975 118.938 18.1354L116.093 13.0233H113.242V17.9313C113.243 17.9803 113.233 18.029 113.215 18.0746C113.196 18.1202 113.168 18.1617 113.133 18.1969C113.097 18.2321 113.055 18.2602 113.008 18.2795C112.962 18.2989 112.911 18.3092 112.861 18.3098H110.365C110.314 18.3092 110.264 18.2989 110.217 18.2795C110.17 18.2602 110.128 18.2321 110.093 18.1969C110.057 18.1617 110.03 18.1202 110.011 18.0746C109.992 18.029 109.983 17.9803 109.984 17.9313L109.966 3.52541L109.965 3.52422ZM130.58 6.12891V15.4631H132.99C133.605 15.455 134.212 15.328 134.775 15.0895C135.339 14.8511 135.847 14.506 136.27 14.0747C137.137 13.1901 137.612 12.0137 137.594 10.796C137.614 10.1902 137.509 9.58662 137.286 9.02004C137.063 8.45346 136.726 7.93508 136.294 7.49473C135.87 7.06139 135.357 6.71671 134.789 6.482C134.221 6.24728 133.609 6.12751 132.991 6.13009L130.58 6.12891V6.12891ZM132.99 3.19908C137.483 3.19908 140.883 6.56322 140.883 10.796C140.883 15.0287 137.483 18.3929 132.99 18.3929H127.688C127.637 18.3923 127.587 18.382 127.54 18.3626C127.494 18.3432 127.452 18.3151 127.416 18.28C127.381 18.2448 127.353 18.2032 127.334 18.1577C127.315 18.1121 127.306 18.0634 127.307 18.0143V3.59661C127.307 3.38657 127.478 3.21688 127.688 3.21688L132.991 3.19908H132.99ZM150.91 6.91091L149.045 11.9019H152.772L150.91 6.91091V6.91091ZM147.951 14.7226L146.73 18.0452C146.706 18.1234 146.655 18.1915 146.586 18.2387C146.517 18.286 146.434 18.3097 146.349 18.3063H143.701C143.633 18.3123 143.565 18.3008 143.504 18.2728C143.443 18.2448 143.391 18.2014 143.353 18.1472C143.314 18.0924 143.291 18.0289 143.285 17.9628C143.279 17.8967 143.291 17.8302 143.32 17.7699L149.042 3.36521C149.068 3.28925 149.12 3.22379 149.189 3.1788C149.258 3.13382 149.34 3.11177 149.423 3.11602H152.386C152.469 3.1115 152.551 3.13342 152.621 3.17843C152.69 3.22344 152.741 3.28905 152.768 3.36521L158.49 17.7699C158.519 17.8303 158.53 17.8968 158.524 17.9629C158.518 18.029 158.495 18.0925 158.456 18.1472C158.418 18.2012 158.365 18.2443 158.304 18.2721C158.243 18.2999 158.175 18.3113 158.108 18.3051H155.461C155.376 18.3086 155.293 18.2848 155.224 18.2375C155.155 18.1903 155.104 18.1222 155.08 18.044L153.859 14.7214H147.951V14.7226ZM161.56 7.23486C161.56 4.8497 163.643 2.78732 166.932 2.78732C168.703 2.74915 170.418 3.38858 171.702 4.5661C171.741 4.60181 171.772 4.64485 171.794 4.6926C171.815 4.74034 171.826 4.79178 171.826 4.84377C171.826 4.89576 171.815 4.9472 171.794 4.99494C171.772 5.04269 171.741 5.08573 171.702 5.12145L170.235 6.56322C170.2 6.59824 170.158 6.6261 170.112 6.64512C170.065 6.66414 170.015 6.67395 169.965 6.67395C169.914 6.67395 169.864 6.66414 169.818 6.64512C169.772 6.6261 169.729 6.59824 169.694 6.56322C169.004 5.93824 168.096 5.58413 167.149 5.57C165.834 5.57 164.861 6.32589 164.861 7.19807C164.861 10.0175 172.635 8.39065 172.635 13.816C172.632 16.5654 170.533 18.6456 166.822 18.6456C165.792 18.6558 164.77 18.4659 163.817 18.0871C162.864 17.7083 162 17.1485 161.276 16.4408C161.237 16.4051 161.206 16.3621 161.185 16.3143C161.163 16.2666 161.152 16.2152 161.152 16.1632C161.152 16.1112 161.163 16.0597 161.185 16.012C161.206 15.9643 161.237 15.9212 161.276 15.8855L162.695 14.4805C162.73 14.4438 162.773 14.4145 162.821 14.3944C162.868 14.3744 162.92 14.3641 162.972 14.3641C163.024 14.3641 163.075 14.3744 163.123 14.3944C163.17 14.4145 163.213 14.4438 163.248 14.4805C164.141 15.3348 165.344 15.82 166.601 15.8333C168.245 15.8333 169.328 14.9647 169.328 13.8765C169.328 11.0559 161.558 12.6839 161.558 7.25741L161.56 7.23486ZM186.733 3.50524V9.20588H180.152V3.50524C180.153 3.4563 180.144 3.40773 180.125 3.36228C180.106 3.31683 180.078 3.27541 180.043 3.24037C180.007 3.20532 179.965 3.17735 179.919 3.15806C179.872 3.13876 179.822 3.1285 179.771 3.12788H177.275C177.225 3.1285 177.175 3.13876 177.128 3.15806C177.081 3.17735 177.039 3.20532 177.004 3.24037C176.968 3.27541 176.941 3.31683 176.922 3.36228C176.903 3.40773 176.894 3.4563 176.894 3.50524V17.9075C176.894 18.1164 177.066 18.2861 177.275 18.2861H179.771C179.98 18.2861 180.152 18.1164 180.152 17.9075V12.1167H186.728V17.9075C186.728 18.1164 186.9 18.2861 187.109 18.2861H189.605C189.815 18.2861 189.986 18.1164 189.986 17.9075V3.50524C189.986 3.4563 189.977 3.40773 189.958 3.36228C189.939 3.31683 189.912 3.27541 189.876 3.24037C189.841 3.20532 189.799 3.17735 189.752 3.15806C189.705 3.13876 189.655 3.1285 189.605 3.12788H187.109C187.007 3.13037 186.911 3.17138 186.84 3.24201C186.77 3.31265 186.731 3.40722 186.733 3.50524V3.50524ZM38.2744 5.05025C36.5433 1.95311 33.1561 0.0248091 29.4726 0.0366755H1.60279C1.41458 0.0374129 1.23075 0.0915879 1.07422 0.19245C0.917682 0.293313 0.795358 0.436403 0.722487 0.603892C0.650681 0.770306 0.63198 0.953621 0.668778 1.13036C0.705576 1.30709 0.796199 1.4692 0.929039 1.59593L7.0002 7.41048C7.53625 7.92549 8.26656 8.21384 9.02637 8.21384H28.6734C30.0738 8.1996 31.2184 9.26996 31.2332 10.6026C31.2479 11.9352 30.1254 13.0269 28.725 13.0399H15.1799C14.9916 13.04 14.8074 13.0936 14.6504 13.1941C14.4934 13.2945 14.3705 13.4374 14.2971 13.6048C14.2246 13.7714 14.2055 13.9551 14.242 14.1323C14.2786 14.3095 14.3693 14.4721 14.5025 14.5992L20.5773 20.4185C21.1167 20.9332 21.8449 21.2215 22.6035 21.2206H28.73C36.7007 21.2206 42.7276 13.104 38.2744 5.04669" fill="#FF3008"/>
</svg>
