<svg width="133" height="39" viewBox="0 0 133 39" fill="none" xmlns="http://www.w3.org/2000/svg">
<path d="M23.0631 9.86853L25.8861 5.14891C26.2829 4.48629 26.3906 3.69907 26.1854 2.96007C25.9803 2.22106 25.4791 1.59067 24.7918 1.20726C24.4516 1.01796 24.076 0.89514 23.6864 0.845828C23.2969 0.796517 22.901 0.821683 22.5216 0.919887C22.1421 1.01809 21.7865 1.1874 21.4751 1.41814C21.1636 1.64887 20.9025 1.9365 20.7066 2.26456L17.8835 6.98254C11.8665 5.15302 5.13126 7.52063 1.84596 13.01C0.853863 14.6644 0.244589 16.5058 0.0598489 18.4081C-0.124892 20.3103 0.119262 22.2286 0.775599 24.0315L5.98925 15.3185C6.57521 14.3326 7.35838 13.4684 8.29342 12.776C9.22847 12.0836 10.2968 11.5768 11.4366 11.2848C12.5743 10.9876 13.7619 10.911 14.9305 11.0595C16.0992 11.208 17.2256 11.5787 18.2443 12.1499C22.5283 14.5364 24.0012 19.8409 21.5279 23.9732C19.0545 28.1071 13.5569 29.5283 9.2737 27.1418L12.2639 22.1445C12.604 22.334 12.9795 22.457 13.3691 22.5065C13.7586 22.5559 14.1544 22.5309 14.5339 22.4329C14.9133 22.3348 15.269 22.1656 15.5805 21.935C15.892 21.7044 16.1532 21.4168 16.3492 21.0888C16.7454 20.4261 16.8527 19.6391 16.6474 18.9004C16.4421 18.1616 15.9411 17.5314 15.2541 17.148C14.914 16.9586 14.5384 16.8357 14.1489 16.7863C13.7594 16.7369 13.3636 16.7619 12.9842 16.8599C12.6048 16.958 12.2491 17.1271 11.9376 17.3577C11.6261 17.5883 11.3648 17.8757 11.1688 18.2037L1.63018 34.1436C1.23363 34.8061 1.12612 35.5931 1.33127 36.332C1.53641 37.0708 2.03744 37.701 2.72443 38.0844C3.06455 38.274 3.44015 38.397 3.82973 38.4465C4.2193 38.496 4.61518 38.4709 4.99469 38.3728C5.3742 38.2746 5.72987 38.1053 6.04133 37.8746C6.35278 37.6438 6.6139 37.3561 6.80972 37.0279L9.63361 32.31C15.6498 34.1395 22.3859 31.7719 25.6712 26.2817C28.9565 20.7923 27.7138 13.9802 23.0622 9.86771L23.0631 9.86853ZM40.2802 19.5337C41.6166 19.5337 42.4678 18.9545 42.4678 17.553C42.4678 16.1334 41.5774 15.5929 40.2802 15.5929H38.4396V19.5329H40.2802V19.5337ZM35.7292 13.2934H40.3569C43.0486 13.2934 45.2567 14.5824 45.2567 17.553C45.2567 20.5236 43.0298 21.8331 40.3569 21.8331H38.4405V25.999H35.7283V13.2934H35.7292ZM49.2388 13.2934H57.9527V15.5929H51.9493V18.506H57.2371V20.7479H51.9493V23.7013H58.2247V25.999H49.2379V13.2934H49.2388ZM62.7868 13.2934H65.4981V23.7013H71.4632V25.999H62.7868V13.2934ZM85.3344 19.6454C85.3344 17.2737 83.708 15.4606 81.3071 15.4606C78.9045 15.4606 77.2789 17.2737 77.2789 19.6454C77.2789 22.0196 78.9045 23.8319 81.3071 23.8319C83.708 23.8319 85.3344 22.0188 85.3344 19.6454ZM74.49 19.6454C74.49 15.8911 77.5109 13.125 81.3071 13.125C85.1024 13.125 88.1216 15.8911 88.1216 19.6454C88.1216 23.4014 85.1024 26.1683 81.3071 26.1683C77.5118 26.1683 74.49 23.4014 74.49 19.6454ZM94.8005 15.5929H91.0444V13.2926H101.269V15.5929H97.5127V25.999H94.8005V15.5929ZM115.017 19.6454C115.017 17.2737 113.391 15.4606 110.99 15.4606C108.587 15.4606 106.961 17.2737 106.961 19.6454C106.961 22.0196 108.587 23.8319 110.99 23.8319C113.391 23.8319 115.017 22.0188 115.017 19.6454ZM104.172 19.6454C104.172 15.8911 107.194 13.125 110.99 13.125C114.785 13.125 117.806 15.8911 117.806 19.6454C117.806 23.4014 114.785 26.1683 110.99 26.1683C107.194 26.1683 104.172 23.4014 104.172 19.6454V19.6454ZM126.088 20.094C125.43 19.4967 124.518 18.3565 124.518 18.3565C124.518 18.3565 124.714 19.758 124.714 20.6731V25.9999H122.176V13.1809H122.447L129.089 19.1985C129.729 19.7769 130.638 20.9344 130.638 20.9344C130.638 20.9344 130.465 19.4967 130.465 18.6193V13.2934H133.001V26.1108H132.732L126.088 20.094" fill="black"/>
</svg>
