<svg width="672" height="188" viewBox="0 0 672 188" fill="none" xmlns="http://www.w3.org/2000/svg">
<path d="M251.31 88.5388C250.704 87.621 249.882 86.8532 248.91 86.2971C247.939 85.741 246.846 85.4121 245.719 85.337C244.592 85.2619 243.463 85.4425 242.422 85.8644C241.38 86.2864 240.456 86.9378 239.724 87.7663L237.136 85.8911C237.782 85.635 239.129 85.0611 239.22 84.7129C239.275 84.5007 238.583 84.3554 237.529 84.2713L242.367 80.0173C242.384 80.0025 242.395 79.9829 242.4 79.9614C242.404 79.9398 242.401 79.9176 242.39 79.898L241.158 77.6609C241.145 77.6443 241.126 77.6326 241.105 77.6278C241.085 77.6231 241.063 77.6256 241.043 77.6349C241.031 77.6411 241.02 77.65 241.011 77.6609L235.972 82.0738C234.465 82.0738 231.789 82.268 231.019 81.7998C229.787 81.0545 229.645 79.9555 229.187 79.5628C228.728 79.17 228.22 79.1218 228.11 78.7859C228.104 78.7802 228.101 78.7724 228.101 78.7643C228.101 78.7601 228.102 78.756 228.103 78.7522C228.105 78.7484 228.107 78.7449 228.11 78.742C228.348 78.6845 229.673 78.3276 229.975 77.4185C230.277 76.5093 229.658 75.3311 229.558 75.1412C229.552 75.1349 229.549 75.1271 229.549 75.1189C229.549 75.1108 229.552 75.103 229.558 75.0967L230.964 73.9141C230.969 73.9084 230.973 73.9013 230.974 73.8936C230.975 73.8859 230.974 73.8781 230.971 73.8711C230.967 73.864 230.962 73.8581 230.955 73.854C230.948 73.8499 230.94 73.8478 230.932 73.848L228.871 74.091C228.859 74.0956 228.846 74.0956 228.834 74.091C228.729 73.9494 227.918 73.0006 226.223 73.6494C224.253 74.4262 224.615 76.0454 224.615 76.0454C224.876 77.7358 225.485 78.071 226.479 78.6227C226.502 78.6227 226.516 78.6672 226.479 78.6845C225.837 79.2009 219.41 84.2849 213.468 86.2702C213.446 86.2778 213.426 86.2918 213.413 86.3104C213.399 86.329 213.392 86.3513 213.392 86.3741C213.392 86.3969 213.399 86.4192 213.413 86.4378C213.426 86.4564 213.446 86.4705 213.468 86.478C215.195 87.193 220.34 86.8132 221.871 85.9573C221.877 85.9533 221.884 85.9514 221.892 85.9516C221.899 85.9518 221.906 85.9542 221.912 85.9585C221.918 85.9629 221.923 85.9689 221.925 85.9757C221.927 85.9826 221.927 85.99 221.925 85.9968C221.761 86.6104 220.862 90.2025 222.287 91.3189L222.365 91.3715L220.455 92.6956C220.367 92.7552 220.302 92.8412 220.27 92.9401C220.239 93.039 220.242 93.1453 220.28 93.2422C220.317 93.3391 220.388 93.4212 220.479 93.4756C220.57 93.5301 220.678 93.5537 220.785 93.543L221.77 93.4459C222.407 93.3802 223.003 93.1096 223.46 92.6777L223.785 92.3691L226.562 94.3637L226.196 97.1926C224.601 97.1089 223.023 97.5368 221.709 98.4093C220.394 99.2818 219.417 100.55 218.93 102.014C218.444 103.479 218.475 105.058 219.02 106.504C219.564 107.949 220.591 109.18 221.94 110.003C223.288 110.827 224.882 111.196 226.472 111.053C228.061 110.911 229.557 110.264 230.725 109.215C231.892 108.167 232.665 106.774 232.924 105.257C233.182 103.739 232.91 102.182 232.151 100.829L232.857 100.387C233.138 100.626 233.492 100.771 233.866 100.801C234.239 100.831 234.613 100.745 234.932 100.554C235.251 100.363 235.497 100.079 235.635 99.7429C235.772 99.4068 235.794 99.037 235.697 98.6881L238.634 97.8587C238.692 97.8447 238.748 97.8197 238.796 97.785C238.845 97.7503 238.886 97.7067 238.917 97.6567C238.948 97.6066 238.968 97.5512 238.977 97.4935C238.986 97.4359 238.982 97.3771 238.967 97.3207V97.2229C238.948 97.1202 238.891 97.0274 238.808 96.9611C238.724 96.8949 238.618 96.8594 238.51 96.8611H236.013C236.006 96.8606 235.999 96.8584 235.992 96.8546C235.986 96.8509 235.98 96.8457 235.977 96.8395L235.225 95.2024L236.746 86.7737L239.147 88.4943C238.451 89.5448 238.06 90.7564 238.017 92.0021C237.974 93.2478 238.279 94.4819 238.901 95.575C239.522 96.6681 240.438 97.58 241.551 98.2152C242.665 98.8505 243.935 99.1856 245.229 99.1856C246.523 99.1856 247.793 98.8505 248.906 98.2152C250.02 97.58 250.935 96.6681 251.557 95.575C252.179 94.4819 252.484 93.2478 252.441 92.0021C252.397 90.7564 252.007 89.5448 251.31 88.4943V88.5388ZM231.308 83.5167L234.712 83.4592L235.17 84.2669C234.387 84.2979 233.557 84.3554 232.765 84.4525C232.188 84.5187 231.496 83.808 231.289 83.5699C231.285 83.5605 231.284 83.5496 231.287 83.5397C231.291 83.5297 231.298 83.5215 231.308 83.5167ZM226.163 88.4194C226.452 87.9785 228.096 85.3307 228.307 84.408C228.311 84.4024 228.315 84.3978 228.321 84.3946C228.327 84.3913 228.333 84.3896 228.34 84.3896C228.346 84.3896 228.353 84.3913 228.358 84.3946C228.364 84.3978 228.369 84.4024 228.372 84.408C229.475 85.6394 231.794 86.35 231.973 86.4026H231.995L234.973 85.52L235.642 86.0012L232.522 88.7596C232.187 88.4612 231.761 88.2752 231.308 88.2296C229.508 88.0094 226.727 88.3972 226.195 88.4726C226.189 88.4727 226.182 88.4712 226.176 88.4681C226.171 88.465 226.166 88.4605 226.163 88.4551C226.16 88.4497 226.158 88.4435 226.158 88.4373C226.158 88.431 226.16 88.4248 226.163 88.4194ZM233.874 97.4617C233.671 97.4835 233.474 97.5402 233.292 97.6293L231.162 96.0404C231.156 96.0342 231.154 96.0264 231.154 96.0184C231.154 96.0105 231.156 96.0027 231.162 95.9965L232.224 93.8689C232.228 93.8634 232.233 93.8589 232.239 93.8558C232.245 93.8527 232.252 93.851 232.259 93.851C232.265 93.851 232.272 93.8527 232.278 93.8558C232.284 93.8589 232.289 93.8634 232.293 93.8689L234.048 96.5173L233.874 97.4617ZM229.352 95.1578L227.89 94.1076L230.685 91.6368L229.352 95.1578ZM229.352 91.5304L227.084 93.5386L224.793 91.9058C226.325 91.9102 227.856 91.7859 229.365 91.5347L229.352 91.5304ZM227.519 94.9989L229.013 96.0757L228.834 96.5482C228.803 96.6278 228.789 96.7125 228.792 96.7974C228.796 96.8823 228.817 96.9657 228.854 97.0428C228.891 97.1199 228.943 97.1892 229.008 97.2467C229.073 97.3041 229.149 97.3486 229.232 97.3776L232.353 98.4723L232.444 98.5385C232.314 98.8798 232.299 99.2523 232.403 99.6022L231.702 100.043C230.623 98.6152 229.019 97.638 227.217 97.3114L227.519 94.9989ZM227.034 98.7283C228.394 98.9994 229.606 99.7381 230.442 100.806L226.442 103.26L227.034 98.7283ZM228.948 108.785C228.192 109.257 227.33 109.55 226.434 109.641C225.538 109.731 224.632 109.617 223.79 109.308C222.948 108.998 222.194 108.502 221.589 107.859C220.984 107.216 220.544 106.444 220.307 105.607C220.069 104.77 220.04 103.89 220.221 103.04C220.402 102.19 220.789 101.392 221.351 100.713C221.912 100.034 222.631 99.4921 223.451 99.1311C224.27 98.77 225.167 98.6003 226.067 98.6356L225.353 104.134C225.343 104.221 225.36 104.309 225.4 104.387C225.44 104.466 225.503 104.532 225.58 104.578C225.657 104.624 225.747 104.648 225.837 104.648C225.928 104.647 226.017 104.622 226.094 104.575L230.96 101.588C231.617 102.815 231.774 104.234 231.4 105.567C231.027 106.899 230.149 108.049 228.939 108.79L228.948 108.785ZM233.196 90.7449C233.23 90.3515 233.182 89.9555 233.054 89.5803L235.688 87.2499L234.547 93.7019L233.196 90.7449ZM248.314 96.9236C247.22 97.5916 245.924 97.8832 244.636 97.7509C243.349 97.6186 242.145 97.0702 241.223 96.1951C240.3 95.32 239.712 94.1697 239.555 92.9316C239.397 91.6934 239.68 90.4405 240.356 89.3769L244.896 92.6381C244.978 92.6921 245.074 92.721 245.173 92.721C245.272 92.721 245.369 92.6921 245.451 92.6381C245.517 92.5973 245.571 92.5416 245.61 92.4759C245.649 92.4103 245.671 92.3365 245.673 92.261C245.676 92.1855 245.66 92.1105 245.626 92.0424C245.592 91.9743 245.541 91.9151 245.478 91.87L240.938 88.6044C241.483 88.0172 242.152 87.5491 242.9 87.2316C243.648 86.9141 244.458 86.7545 245.275 86.7637C246.093 86.7728 246.899 86.9505 247.639 87.2846C248.379 87.6187 249.036 88.1017 249.567 88.7009C250.097 89.3002 250.488 90.0018 250.714 90.7587C250.939 91.5157 250.994 92.3103 250.874 93.0892C250.754 93.8681 250.462 94.6133 250.018 95.2745C249.574 95.9358 248.988 96.4979 248.3 96.923L248.314 96.9236Z" fill="black"/>
<path d="M233.728 80.9354L235.404 81.0282C235.444 81.0302 235.483 81.0246 235.52 81.0117C235.557 80.9987 235.591 80.9786 235.62 80.9527L239.766 77.2066C239.777 77.197 239.785 77.1843 239.789 77.1702C239.793 77.1561 239.792 77.1413 239.786 77.1277C239.781 77.1142 239.771 77.1026 239.758 77.0946C239.746 77.0865 239.731 77.0825 239.716 77.0829L238.089 76.9901C238.03 76.9865 237.97 76.9947 237.914 77.0144C237.858 77.0341 237.807 77.0648 237.764 77.1045L233.672 80.7987C233.661 80.8096 233.653 80.8236 233.649 80.8389C233.646 80.8542 233.647 80.8701 233.653 80.8847C233.659 80.8993 233.669 80.9119 233.682 80.9209C233.696 80.9299 233.711 80.935 233.728 80.9354ZM211.778 104.425L209.126 105.978L206.611 104.002L207.408 107.034L204.824 108.692L207.971 109.015L208.888 112.015L210.037 109.182L213.185 109.381L210.752 107.307L211.778 104.425ZM214.871 93.5079L212.218 95.0566L209.699 93.0793L210.496 96.1111L207.916 97.7705L211.064 98.0921L211.98 101.098L213.129 98.2653L216.278 98.4589L213.844 96.3894L214.871 93.5079ZM202.506 99.3637L203.532 96.4816L200.88 98.0352L198.364 96.0586L199.161 99.0897L196.582 100.75L199.725 101.072L200.646 104.077L201.791 101.245L204.943 101.438L202.506 99.3637ZM261.433 100.975V83.3209H269.042C272.315 83.3209 274.444 85.6235 274.444 88.6856C274.444 91.7477 272.315 94.0559 269.042 94.0559H264.343V100.963L261.433 100.975ZM264.343 85.7039V91.6958H268.91C270.365 91.6958 271.535 90.2683 271.535 88.6856C271.535 87.1023 270.342 85.7039 268.91 85.7039H264.343ZM289.125 97.2677C290.041 97.0894 290.959 96.9224 291.88 96.7667C292.064 97.7687 292.684 98.9716 294.789 98.9716C295.261 98.9716 297.568 98.7991 297.568 97.1929C297.568 94.1598 289.518 97.2912 289.518 91.8516C289.518 89.6931 291.748 88.064 294.557 88.064C297.365 88.064 299.751 89.215 300.144 92.0242C299.208 92.1794 298.296 92.352 297.389 92.5307C297.205 90.9474 296.197 90.3722 294.634 90.3722C293.257 90.3722 292.321 91.0742 292.321 91.8516C292.321 92.882 293.31 93.1523 294.867 93.3075C297.849 93.6069 300.347 94.2346 300.347 97.1929C300.347 99.8523 297.962 101.257 294.789 101.257C291.414 101.257 289.489 99.5301 289.125 97.2677ZM301.08 90.3605V88.2885H303.341V84.6042H306.149V88.2657H308.874V90.3605H306.149V97.5559C306.149 98.5578 306.459 98.8621 307.341 98.8621C307.729 98.8621 308.588 98.8108 308.588 98.8108V100.992C308.588 100.992 307.58 101.09 306.584 101.09C304.116 101.09 303.31 99.8121 303.31 97.3827V90.3605H301.08ZM318.647 93.9062C318.647 91.9722 318.206 90.3438 316.101 90.3438C314.098 90.3438 313.555 91.9722 313.555 93.9062V100.975H310.746V88.3114H313.292L313.555 89.6869C313.942 88.985 315.504 88.0578 317.037 88.0578C317.77 88.0165 318.501 88.1728 319.148 88.5093C319.794 88.8461 320.331 89.3496 320.698 89.9634C321.402 88.8124 323.084 88.0585 324.646 88.0585C328.224 88.0585 329.32 90.165 329.32 93.9291V100.998H326.553V93.9056C326.553 91.9945 326.011 90.3196 324.008 90.3196C321.903 90.3196 321.462 91.9487 321.462 93.9056V100.974H318.659L318.647 93.9062ZM334.413 92.6631C333.507 92.5134 332.57 92.3118 331.634 92.1621C331.92 89.353 334.311 88.0467 337.066 88.0467C340.781 88.0467 342.701 89.7735 342.701 93.2618V97.6765C342.701 98.4311 342.856 98.8566 343.404 98.8566C343.633 98.8535 343.86 98.8182 344.079 98.7527V100.963C343.537 101.105 342.977 101.173 342.415 101.165C341.868 101.199 341.328 101.031 340.904 100.695C340.48 100.359 340.204 99.882 340.131 99.3575C339.628 99.9365 339.001 100.404 338.293 100.729C337.585 101.054 336.813 101.228 336.029 101.24C332.988 101.24 331.169 99.6049 331.169 97.2102C331.169 95.2304 333.065 93.4226 336.535 93.4226H339.917V92.6631C339.917 91.6846 339.499 90.3605 337.084 90.3605C335.474 90.3605 334.485 91.1379 334.431 92.6631H334.413ZM339.917 96.0709V95.4432H336.822C334.514 95.4432 334.043 96.5948 334.043 97.199C334.043 98.0507 334.639 98.9258 336.357 98.9258C338.64 98.9258 339.935 97.4229 339.935 96.0474L339.917 96.0709ZM281.278 101.251C279.925 101.251 278.603 100.864 277.478 100.138C276.353 99.4132 275.476 98.3816 274.959 97.1755C274.442 95.9691 274.307 94.6423 274.57 93.3621C274.834 92.0819 275.485 90.9054 276.441 89.9807C277.396 89.0572 278.615 88.428 279.942 88.1732C281.269 87.9184 282.645 88.0494 283.895 88.5495C285.145 89.0496 286.214 89.8957 286.965 90.9808C287.716 92.067 288.117 93.3431 288.117 94.6484C288.115 96.3993 287.394 98.0779 286.112 99.3155C284.83 100.553 283.091 101.249 281.278 101.251ZM281.278 90.5677C280.44 90.5676 279.621 90.8074 278.925 91.2566C278.228 91.7063 277.684 92.3452 277.364 93.0925C277.044 93.8397 276.961 94.6617 277.126 95.4543C277.29 96.2466 277.693 96.9745 278.286 97.546C278.879 98.1167 279.633 98.5051 280.455 98.6621C281.277 98.8191 282.129 98.7376 282.902 98.428C283.676 98.1172 284.337 97.5922 284.802 96.9194C285.266 96.2466 285.513 95.4563 285.511 94.6484C285.51 93.5654 285.063 92.527 284.269 91.762C283.476 90.9969 282.399 90.567 281.278 90.567V90.5677ZM361.538 96.5657C362.396 96.7902 363.249 97.0376 364.108 97.2912C363.512 99.1219 361.723 101.228 358.145 101.228C354.567 101.228 351.962 98.5455 351.962 94.6317C351.962 90.7173 354.346 88.035 358.014 88.035C361.681 88.035 363.941 90.3951 363.941 94.2285C363.949 94.6323 363.931 95.0362 363.887 95.4376H354.859C354.913 97.2912 356.237 98.9432 358.133 98.9432C358.892 98.9638 359.638 98.742 360.253 98.3123C360.869 97.882 361.321 97.2681 361.538 96.5657ZM360.941 93.4053C360.864 91.5232 359.928 90.3203 358.002 90.3203C356.076 90.3203 355.068 91.8232 354.99 93.4059L360.941 93.4053ZM365.146 97.2677C366.082 97.0951 366.994 96.917 367.9 96.7667C368.085 97.7687 368.705 98.9716 370.81 98.9716C371.275 98.9716 373.589 98.7991 373.589 97.1929C373.589 94.1598 365.539 97.2968 365.539 91.8516C365.539 89.6987 367.769 88.064 370.578 88.064C373.386 88.064 375.771 89.215 376.159 92.0298C375.228 92.1794 374.316 92.352 373.41 92.5307C373.225 90.9474 372.218 90.3722 370.655 90.3722C369.278 90.3722 368.341 91.0742 368.341 91.8516C368.341 92.882 369.331 93.1579 370.888 93.3075C373.869 93.6069 376.368 94.2346 376.368 97.1929C376.368 99.8523 373.982 101.257 370.81 101.257C367.435 101.257 365.509 99.5301 365.146 97.2677ZM343.661 90.3605V88.2885H345.921V84.6042H348.729V88.2657H351.454V90.3605H348.729V97.5559C348.729 98.5578 349.039 98.8621 349.952 98.8621C350.34 98.8621 351.198 98.8108 351.198 98.8108V100.992C351.198 100.992 350.197 101.09 349.195 101.09C346.732 101.09 345.921 99.8121 345.921 97.3827V90.3605H343.661Z" fill="black"/>
<path d="M488.681 88.764C488.681 88.764 491.741 86.2769 495.47 86.2769V91.0668C488.203 90.9747 488.681 96.5937 488.681 96.5937V107.647H484.186V86.6453H488.681V88.764ZM515.075 86.6453H519.474V98.3439C519.474 103.687 515.075 108.2 509.528 108.2C503.982 108.2 499.583 103.687 499.583 98.3439V86.6453H503.982V98.3439C503.982 101.292 506.468 103.779 509.528 103.779C512.588 103.779 515.075 101.292 515.075 98.3439V86.6453ZM523.873 107.647V86.6453H528.367V107.74H523.873V107.647ZM470.893 90.5141C467.164 90.5141 464.104 93.4618 464.104 97.0543C464.104 100.647 467.164 103.594 470.893 103.594C473.189 103.594 475.197 102.489 476.536 100.739L480.074 103.318C477.874 106.174 474.527 107.924 470.893 107.924C464.677 108.016 459.705 103.134 459.705 97.0543C459.705 90.9747 464.773 86.1848 470.893 86.1848C474.527 86.1848 478.066 87.9349 480.074 90.7905L476.536 93.3697C475.292 91.6195 473.189 90.5141 470.893 90.5141ZM555.622 95.1199H568.628C567.385 89.9615 562.125 90.1457 562.125 90.1457C562.125 90.1457 557.343 89.7772 555.622 95.1199ZM562.029 86.2769C562.029 86.2769 573.505 85.9084 572.931 98.7124H555.526C555.909 100.278 556.674 101.568 557.917 102.673C559.16 103.779 560.786 104.331 562.603 104.331C562.603 104.331 566.333 104.516 568.532 101.476L571.784 103.779C570.923 104.976 569.489 105.989 567.576 106.911C565.95 107.647 564.038 108.108 562.221 108.108C556.005 108.108 551.319 103.226 551.319 97.2385C551.223 91.1589 556.005 86.2769 562.029 86.2769ZM546.25 97.0543C546.25 97.0543 548.641 98.436 548.545 101.66C548.545 101.66 548.737 106.174 543.573 107.647C543.573 107.647 537.452 109.582 532.479 104.792L534.775 101.752C539.843 105.805 543.19 103.502 543.19 103.502C543.764 103.042 544.051 102.489 544.051 101.844C544.051 100.186 541.851 99.6335 541.851 99.6335C541.182 99.4493 540.512 99.1729 539.652 98.9887C539.652 98.9887 536.974 98.3439 534.966 97.1464C534.296 96.6858 533.723 96.1331 533.245 95.3962C532.766 94.6593 532.575 93.7382 532.575 92.6328C532.575 92.6328 532.384 88.4876 536.4 86.7374C536.4 86.7374 542.043 84.4346 547.302 88.4876L545.007 91.7116C542.616 89.9615 540.226 90.0536 540.226 90.0536C539.174 90.0536 538.504 90.2378 537.93 90.6984C537.452 91.1589 537.165 91.5274 537.165 92.0801C537.165 92.0801 536.974 93.3697 539.365 94.2908C540.034 94.4751 540.704 94.7514 541.564 94.9356C542.329 95.1199 543.19 95.4883 543.955 95.6726C544.816 96.2253 545.581 96.6858 546.25 97.0543ZM526.072 76.7891C527.794 76.7891 529.132 78.0787 529.132 79.8288C529.132 81.579 527.794 82.8686 526.072 82.8686C524.351 82.8686 523.012 81.579 523.012 79.8288C523.012 78.0787 524.351 76.7891 526.072 76.7891Z" fill="#FF4D37"/>
<path d="M410.306 160.032H406.808L406.371 156.244C406.333 155.913 406.047 155.663 405.707 155.663L401.812 155.662C401.542 155.662 401.324 155.876 401.324 156.14V160.032L401.358 164.101V171.125C401.358 172.016 401.46 172.825 401.665 173.549C401.869 174.274 402.204 174.898 402.67 175.422C403.135 175.947 403.754 176.348 404.526 176.626C405.297 176.904 406.251 177.044 407.387 177.044C407.978 177.044 408.568 176.994 409.159 176.894C409.581 176.823 409.951 176.742 410.268 176.654C410.48 176.595 410.622 176.402 410.618 176.186L410.567 173.167C410.562 172.867 410.279 172.653 409.979 172.71C409.918 172.721 409.854 172.731 409.789 172.741C409.483 172.786 409.193 172.808 408.92 172.808C408.126 172.808 407.575 172.613 407.269 172.222C406.962 171.831 406.808 171.245 406.808 170.464V164.101H410.306C410.576 164.101 410.794 163.887 410.794 163.623V160.51C410.794 160.246 410.576 160.032 410.306 160.032Z" fill="#6AC32F"/>
<path d="M258.608 161.555C258.12 160.921 257.479 160.404 256.684 160.004C255.911 159.615 254.978 159.417 253.885 159.406L253.889 159.404C253.871 159.404 253.855 159.405 253.837 159.405C253.821 159.405 253.805 159.404 253.788 159.404C253.728 159.404 253.669 159.408 253.609 159.41C252.348 159.44 251.269 159.669 250.378 160.104C249.564 160.502 248.907 160.932 248.402 161.394L248.073 160.335C247.988 160.059 247.728 159.871 247.434 159.871L243.717 159.871C243.447 159.871 243.228 160.085 243.228 160.349V176.004C243.228 176.268 243.447 176.482 243.717 176.482H248.36C248.63 176.482 248.849 176.268 248.849 176.004V167.476C248.849 167.009 248.911 166.558 249.036 166.125C249.161 165.691 249.348 165.308 249.598 164.974C249.848 164.641 250.16 164.379 250.535 164.19C250.91 164.002 251.347 163.907 251.847 163.907C252.346 163.907 252.76 164.002 253.09 164.19C253.419 164.379 253.674 164.635 253.857 164.957C254.038 165.28 254.168 165.653 254.248 166.075C254.328 166.498 254.367 166.942 254.367 167.409V176.004C254.367 176.268 254.586 176.482 254.856 176.482H259.5C259.77 176.482 259.988 176.268 259.988 176.004V166.208C259.988 165.386 259.88 164.563 259.664 163.74C259.448 162.918 259.096 162.189 258.608 161.555Z" fill="#6AC32F"/>
<path d="M300.528 172.047C300.028 171.802 299.608 171.48 299.268 171.079C298.927 170.679 298.671 170.218 298.501 169.695C298.331 169.173 298.246 168.644 298.246 168.111C298.246 167.577 298.331 167.055 298.501 166.543C298.671 166.032 298.927 165.581 299.268 165.192C299.608 164.803 300.028 164.486 300.528 164.241C301.027 163.997 301.606 163.874 302.265 163.874C302.901 163.874 303.468 163.997 303.969 164.241C304.468 164.486 304.893 164.808 305.246 165.209C305.598 165.609 305.87 166.065 306.064 166.576C306.256 167.088 306.353 167.61 306.353 168.144C306.353 168.678 306.256 169.2 306.064 169.712C305.87 170.224 305.598 170.679 305.246 171.079C304.893 171.48 304.468 171.802 303.969 172.047C303.468 172.292 302.901 172.414 302.265 172.414C301.606 172.414 301.027 172.292 300.528 172.047ZM311.213 153.376H306.603C306.333 153.376 306.115 153.59 306.115 153.854V161.639H306.047C305.57 161.084 304.899 160.572 304.037 160.105C303.173 159.638 302.117 159.405 300.869 159.405C299.643 159.405 298.535 159.638 297.547 160.105C296.56 160.572 295.719 161.206 295.026 162.006C294.333 162.807 293.8 163.736 293.426 164.791C293.051 165.848 292.863 166.955 292.863 168.111C292.863 169.267 293.045 170.379 293.408 171.446C293.772 172.514 294.299 173.453 294.993 174.265C295.685 175.077 296.531 175.727 297.53 176.216C298.53 176.705 299.665 176.95 300.937 176.95C301.09 176.95 301.242 176.945 301.394 176.937C302.72 176.909 303.854 176.67 304.789 176.213C305.594 175.82 306.251 175.395 306.765 174.942L307.126 176.03C307.215 176.3 307.472 176.483 307.762 176.483H311.213C311.483 176.483 311.701 176.269 311.701 176.005V153.854C311.701 153.59 311.483 153.376 311.213 153.376Z" fill="#6AC32F"/>
<path d="M341.798 159.871H337.065C336.845 159.871 336.653 160.014 336.594 160.222L333.73 170.378H333.662L330.63 160.215C330.569 160.011 330.379 159.871 330.161 159.871H325.276C325.058 159.871 324.866 160.013 324.807 160.219L321.875 170.378H321.773L318.941 160.223C318.884 160.015 318.691 159.871 318.47 159.871H313.499C313.164 159.871 312.928 160.194 313.038 160.505L318.56 176.16C318.627 176.353 318.813 176.482 319.021 176.482H323.934C324.148 176.482 324.337 176.346 324.4 176.146L327.564 166.142H327.633L330.863 176.148C330.927 176.347 331.115 176.482 331.328 176.482H336.244C336.452 176.482 336.637 176.354 336.705 176.161L342.259 160.506C342.369 160.195 342.133 159.871 341.798 159.871Z" fill="#6AC32F"/>
<path d="M369.923 153.375H365.211C364.941 153.375 364.723 153.589 364.723 153.853V176.004C364.723 176.268 364.941 176.482 365.211 176.482H369.923C370.193 176.482 370.411 176.268 370.411 176.004V153.853C370.411 153.589 370.193 153.375 369.923 153.375Z" fill="#6AC32F"/>
<path d="M379.254 153.375H374.542C374.273 153.375 374.054 153.589 374.054 153.853V176.004C374.054 176.268 374.273 176.482 374.542 176.482H379.254C379.524 176.482 379.743 176.268 379.743 176.004V153.853C379.743 153.589 379.524 153.375 379.254 153.375Z" fill="#6AC32F"/>
<path d="M348.704 171.079C348.363 170.679 348.108 170.218 347.937 169.695C347.768 169.173 347.682 168.644 347.682 168.111C347.682 167.577 347.768 167.055 347.937 166.543C348.108 166.032 348.363 165.581 348.704 165.192C349.045 164.803 349.464 164.486 349.964 164.241C350.463 163.997 351.043 163.874 351.702 163.874C352.338 163.874 352.905 163.997 353.405 164.241C353.904 164.486 354.33 164.808 354.683 165.208C355.034 165.609 355.307 166.065 355.5 166.576C355.693 167.088 355.79 167.61 355.79 168.144C355.79 168.678 355.693 169.2 355.5 169.712C355.307 170.224 355.034 170.679 354.683 171.079C354.33 171.48 353.904 171.802 353.405 172.047C352.905 172.292 352.338 172.414 351.702 172.414C351.043 172.414 350.463 172.292 349.964 172.047C349.464 171.802 349.045 171.48 348.704 171.079ZM360.65 159.303L356.756 159.303C356.46 159.303 356.199 159.493 356.115 159.772L355.66 161.277C355.175 160.86 354.562 160.469 353.817 160.105C352.861 159.638 351.69 159.404 350.306 159.404H350.305C349.079 159.404 347.972 159.638 346.983 160.105C345.996 160.572 345.155 161.206 344.463 162.006C343.77 162.807 343.237 163.735 342.862 164.791C342.487 165.848 342.3 166.954 342.3 168.111C342.3 169.267 342.481 170.379 342.845 171.446C343.208 172.514 343.736 173.453 344.429 174.265C345.122 175.077 345.967 175.727 346.967 176.216C347.966 176.705 349.101 176.95 350.373 176.95C350.666 176.95 350.955 176.934 351.239 176.904C352.28 176.819 353.188 176.59 353.96 176.213C354.876 175.766 355.601 175.279 356.14 174.754L356.562 176.03C356.652 176.3 356.909 176.483 357.198 176.483L360.649 176.483C360.919 176.483 361.138 176.269 361.138 176.005V159.782C361.138 159.518 360.919 159.303 360.65 159.303Z" fill="#6AC32F"/>
<path d="M292.266 159.45L292.225 159.443L292.288 159.404C292.147 159.404 292.01 159.408 291.873 159.413C291.761 159.407 291.647 159.404 291.531 159.404C290.796 159.404 290.124 159.54 289.512 159.806C289.255 159.892 289.01 159.991 288.778 160.104C287.877 160.544 287.168 161.024 286.646 161.543L286.304 160.366C286.222 160.085 285.96 159.891 285.661 159.891L281.97 159.89C281.701 159.89 281.482 160.104 281.482 160.368V176.004C281.482 176.268 281.701 176.482 281.97 176.482H286.58C286.85 176.482 287.069 176.268 287.069 176.004V167.966C287.069 167.633 287.137 167.245 287.273 166.802C287.41 166.359 287.631 165.948 287.938 165.571C288.244 165.194 288.653 164.872 289.164 164.606C289.675 164.34 290.305 164.207 291.054 164.207C291.281 164.207 291.514 164.218 291.753 164.24L291.977 164.268C292.246 164.293 292.485 164.101 292.511 163.838L292.698 159.978C292.727 159.715 292.534 159.479 292.266 159.45Z" fill="#6AC32F"/>
<path d="M267.199 166.274C267.222 165.851 267.336 165.445 267.54 165.056C267.745 164.668 268.017 164.328 268.358 164.039C268.699 163.75 269.096 163.522 269.55 163.355C270.005 163.188 270.504 163.105 271.049 163.105C272.162 163.105 272.996 163.417 273.553 164.039C274.109 164.662 274.388 165.407 274.388 166.274H267.199ZM277.147 161.737C276.397 160.959 275.5 160.365 274.456 159.953C273.411 159.541 272.264 159.336 271.015 159.336C269.721 159.336 268.517 159.547 267.404 159.969C266.291 160.392 265.326 160.987 264.508 161.754C263.691 162.521 263.044 163.455 262.567 164.556C262.09 165.657 261.852 166.886 261.852 168.242C261.852 169.643 262.096 170.889 262.584 171.978C263.073 173.068 263.743 173.985 264.594 174.73C265.445 175.475 266.438 176.042 267.575 176.431C268.71 176.82 269.914 177.015 271.186 177.015C272.911 177.015 274.427 176.709 275.733 176.097C276.531 175.723 277.235 175.252 277.842 174.682C278.073 174.465 278.076 174.103 277.85 173.881L275.437 171.507C275.216 171.289 274.852 171.28 274.634 171.5C274.314 171.824 273.936 172.1 273.502 172.328C272.888 172.651 272.139 172.812 271.254 172.812C270.754 172.812 270.271 172.734 269.806 172.578C269.34 172.423 268.92 172.206 268.546 171.928C268.171 171.65 267.864 171.322 267.626 170.944C267.388 170.566 267.245 170.143 267.199 169.676H279.498C279.52 169.476 279.531 169.265 279.531 169.042C279.531 168.82 279.531 168.598 279.531 168.375C279.531 166.952 279.321 165.685 278.901 164.573C278.48 163.461 277.896 162.516 277.147 161.737Z" fill="#6AC32F"/>
<path d="M387.207 166.274C387.23 165.851 387.344 165.445 387.548 165.056C387.753 164.668 388.025 164.328 388.366 164.039C388.707 163.75 389.104 163.522 389.558 163.355C390.012 163.188 390.512 163.105 391.057 163.105C392.169 163.105 393.004 163.417 393.561 164.039C394.117 164.662 394.396 165.407 394.396 166.274H387.207ZM397.154 161.737C396.405 160.959 395.507 160.365 394.463 159.953C393.419 159.541 392.271 159.336 391.023 159.336C389.729 159.336 388.525 159.547 387.412 159.969C386.299 160.392 385.334 160.987 384.516 161.754C383.699 162.521 383.052 163.455 382.575 164.556C382.097 165.657 381.859 166.886 381.859 168.242C381.859 169.643 382.103 170.889 382.592 171.978C383.08 173.068 383.75 173.985 384.602 174.73C385.453 175.475 386.446 176.042 387.582 176.431C388.718 176.82 389.921 177.015 391.193 177.015C392.919 177.015 394.435 176.709 395.741 176.097C396.539 175.723 397.242 175.252 397.85 174.682C398.081 174.465 398.084 174.103 397.858 173.881L395.445 171.507C395.224 171.289 394.86 171.28 394.642 171.5C394.321 171.824 393.944 172.1 393.51 172.328C392.896 172.651 392.147 172.812 391.262 172.812C390.762 172.812 390.279 172.734 389.813 172.578C389.348 172.423 388.928 172.206 388.553 171.928C388.179 171.65 387.872 171.322 387.633 170.944C387.395 170.566 387.253 170.143 387.207 169.676H399.505C399.527 169.476 399.539 169.265 399.539 169.042C399.539 168.82 399.539 168.598 399.539 168.375C399.539 166.952 399.329 165.685 398.909 164.573C398.488 163.461 397.904 162.516 397.154 161.737Z" fill="#6AC32F"/>
<path d="M208.115 148.236C207.996 148.193 207.869 148.168 207.74 148.168H197.346C196.924 148.168 196.582 148.503 196.582 148.916V159.529L208.115 148.236Z" fill="#0F9B4A"/>
<path d="M196.807 182.031C196.945 182.166 197.136 182.25 197.347 182.25H207.421C207.843 182.25 208.185 181.915 208.185 181.502V170.89L196.807 182.031Z" fill="#0F9B4A"/>
<path d="M219.786 159.528V182.154C219.808 182.164 219.831 182.173 219.855 182.182L231.387 170.889L219.786 159.528Z" fill="#1B523D"/>
<path d="M208.184 170.889V148.264C208.161 148.254 208.138 148.244 208.115 148.235L196.582 159.528V181.502C196.582 181.708 196.668 181.895 196.806 182.03L208.184 170.889Z" fill="#6AC32F"/>
<path d="M231.387 170.892V148.918C231.387 148.505 231.045 148.17 230.623 148.17H220.549C220.128 148.17 219.786 148.504 219.786 148.917V159.531L231.387 170.892Z" fill="#6AC32F"/>
<path d="M231.385 170.89L219.853 182.183C219.972 182.226 220.098 182.25 220.228 182.25H230.622C231.044 182.25 231.385 181.915 231.385 181.502V170.89Z" fill="#6AC32F"/>
<path d="M219.785 159.528H219.785V159.529L219.785 159.528Z" fill="#D2D2D2"/>
<path d="M208.497 148.475C208.406 148.385 208.299 148.316 208.184 148.264V170.889L219.471 181.943C219.563 182.032 219.67 182.103 219.785 182.154V159.528L208.497 148.475Z" fill="#0F9B4A"/>
<path d="M525.207 22.6822L522.96 16.9204C522.939 16.8685 522.902 16.8238 522.855 16.7923C522.807 16.7609 522.751 16.744 522.693 16.744C522.635 16.744 522.579 16.7609 522.531 16.7923C522.484 16.8238 522.447 16.8685 522.426 16.9204L520.179 22.6831C520.163 22.724 520.158 22.7679 520.164 22.811C520.17 22.8542 520.187 22.8953 520.214 22.9307C520.24 22.9661 520.275 22.9948 520.315 23.0143C520.356 23.0337 520.4 23.0434 520.446 23.0423H524.959C525.027 23.043 525.092 23.0192 525.141 22.9756C525.191 22.932 525.222 22.8719 525.227 22.8074C525.231 22.765 525.224 22.7223 525.207 22.6831V22.6822ZM526.254 25.9154H519.132C519.074 25.9158 519.017 25.9331 518.969 25.9652C518.922 25.9973 518.885 26.0426 518.865 26.095L517.455 29.6893C517.435 29.7416 517.399 29.7868 517.351 29.8189C517.304 29.8509 517.247 29.8684 517.189 29.869H514.101C514.054 29.8696 514.008 29.8589 513.966 29.8379C513.924 29.8168 513.888 29.7861 513.862 29.7484C513.836 29.7108 513.819 29.6674 513.815 29.6222C513.81 29.5769 513.817 29.5313 513.836 29.4894L520.939 12.6942C520.96 12.6433 520.998 12.6002 521.046 12.571C521.094 12.5417 521.15 12.5278 521.207 12.5311H524.158C524.214 12.5314 524.269 12.5469 524.316 12.5757C524.363 12.6045 524.401 12.6456 524.426 12.6942L531.528 29.4894C531.547 29.5315 531.554 29.5772 531.549 29.6225C531.544 29.6678 531.528 29.7113 531.502 29.7491C531.475 29.7868 531.439 29.8176 531.397 29.8387C531.355 29.8598 531.309 29.8705 531.261 29.8699H528.178C528.12 29.8694 528.063 29.8519 528.016 29.8197C527.968 29.7874 527.932 29.742 527.912 29.6893L526.502 26.095C526.489 26.0421 526.457 25.9952 526.411 25.9623C526.366 25.9294 526.311 25.9125 526.254 25.9145V25.9154ZM532.996 18.4191H535.644C535.719 18.4205 535.79 18.4494 535.843 18.5C535.897 18.5506 535.928 18.6189 535.93 18.6908V29.6C535.928 29.6718 535.897 29.7399 535.843 29.7901C535.79 29.8404 535.719 29.869 535.644 29.8699H532.997C532.922 29.8692 532.851 29.8407 532.797 29.7905C532.744 29.7402 532.713 29.6719 532.71 29.6V18.6908C532.71 18.6546 532.717 18.6188 532.731 18.5853C532.746 18.5519 532.767 18.5216 532.794 18.4962C532.82 18.4708 532.852 18.4509 532.887 18.4377C532.922 18.4244 532.96 18.4181 532.997 18.4191H532.996ZM545.568 21.0738C545.566 21.146 545.535 21.2145 545.481 21.2653C545.428 21.316 545.357 21.3451 545.282 21.3465H545.205C543.891 21.3465 542.939 21.6339 542.33 22.2308C541.721 22.8277 541.416 23.8023 541.416 25.1729V29.5806C541.413 29.6524 541.382 29.7206 541.329 29.7712C541.276 29.8217 541.205 29.8508 541.131 29.8524H538.52C538.445 29.8508 538.374 29.8217 538.321 29.7712C538.268 29.7206 538.237 29.6524 538.235 29.5806V18.6908C538.237 18.6189 538.268 18.5506 538.321 18.5C538.375 18.4494 538.446 18.4205 538.521 18.4191H541.11C541.185 18.4202 541.257 18.4491 541.31 18.4997C541.364 18.5503 541.395 18.6187 541.397 18.6908V20.8399H541.454C541.718 20.0235 542.237 19.3052 542.939 18.782C543.673 18.2833 544.556 18.0296 545.454 18.0598H545.587V21.0748H545.568V21.0738ZM552.786 20.967C552.712 20.9681 552.641 20.9967 552.588 21.0467C552.535 21.0968 552.504 21.1645 552.501 21.236V25.7698C552.466 26.1245 552.567 26.4782 552.786 26.7647C552.977 26.9618 553.3 27.0521 553.777 27.0521H554.044C554.118 27.0537 554.189 27.0828 554.242 27.1333C554.295 27.1838 554.326 27.252 554.328 27.3238V29.5991C554.326 29.6707 554.295 29.7387 554.242 29.7889C554.189 29.8391 554.118 29.8678 554.044 29.869H552.921C551.758 29.869 550.864 29.5797 550.236 29.0197C549.606 28.443 549.302 27.6112 549.302 26.4745V21.236C549.299 21.1642 549.268 21.0962 549.215 21.0461C549.161 20.996 549.09 20.9676 549.015 20.967H547.359C547.284 20.9654 547.213 20.9362 547.16 20.8854C547.107 20.8347 547.076 20.7663 547.074 20.6943V18.6908C547.076 18.619 547.107 18.5506 547.16 18.5001C547.213 18.4495 547.284 18.4205 547.359 18.4191H549.016C549.091 18.4182 549.162 18.3896 549.215 18.3394C549.269 18.2891 549.3 18.221 549.302 18.1492V14.1026C549.305 14.0308 549.336 13.9627 549.389 13.9124C549.442 13.8622 549.514 13.8336 549.588 13.8327H552.235C552.31 13.8336 552.381 13.8622 552.434 13.9124C552.488 13.9627 552.519 14.0308 552.521 14.1026V18.1492C552.524 18.221 552.555 18.2891 552.608 18.3394C552.661 18.3896 552.732 18.4182 552.807 18.4191H554.711C554.786 18.4205 554.857 18.4494 554.91 18.5C554.963 18.5506 554.995 18.6189 554.997 18.6908V20.6943C554.995 20.7664 554.964 20.835 554.911 20.8857C554.857 20.9365 554.786 20.9656 554.711 20.967H552.786ZM564.88 26.457C565.185 26.1467 565.421 25.7803 565.575 25.3798C565.729 24.9793 565.797 24.553 565.775 24.1265C565.792 23.7005 565.722 23.2754 565.569 22.8755C565.415 22.4756 565.181 22.1088 564.88 21.796C564.236 21.2274 563.393 20.912 562.519 20.912C561.645 20.912 560.802 21.2274 560.157 21.796C559.853 22.1063 559.616 22.4727 559.463 22.8732C559.309 23.2737 559.241 23.7 559.262 24.1265C559.245 24.5526 559.315 24.9777 559.469 25.3775C559.623 25.7774 559.856 26.1442 560.157 26.457C560.466 26.7534 560.836 26.985 561.242 27.1372C561.649 27.2894 562.083 27.3589 562.519 27.3413C562.956 27.3647 563.392 27.2979 563.8 27.1454C564.207 26.9929 564.576 26.7582 564.881 26.457H564.88ZM558.785 29.5097C557.891 29.0212 557.163 28.2928 556.691 27.4132C556.189 26.3847 555.929 25.2624 555.929 24.1261C555.929 22.9897 556.189 21.8674 556.691 20.8389C557.169 19.9635 557.895 19.2367 558.785 18.7433C559.679 18.2585 560.691 18.0094 561.717 18.0212C562.556 18.0013 563.387 18.1817 564.136 18.5462C564.799 18.884 565.352 19.3903 565.736 20.0099H565.794V18.6706C565.796 18.599 565.827 18.5312 565.88 18.481C565.933 18.4308 566.004 18.402 566.079 18.4007H568.688C568.763 18.4018 568.834 18.4304 568.887 18.4807C568.94 18.5309 568.972 18.5989 568.974 18.6706V29.5788C568.972 29.6511 568.941 29.7197 568.888 29.7705C568.834 29.8213 568.762 29.8503 568.687 29.8514H566.081C566.006 29.8501 565.934 29.821 565.881 29.7702C565.828 29.7195 565.797 29.6509 565.795 29.5788V28.2431H565.737C565.353 28.8634 564.799 29.37 564.136 29.7078C563.387 30.0708 562.556 30.2508 561.717 30.2319C560.691 30.2437 559.679 29.9946 558.785 29.5097ZM579.85 26.457C580.155 26.1466 580.391 25.7802 580.545 25.3798C580.699 24.9793 580.767 24.553 580.745 24.1265C580.762 23.7005 580.692 23.2754 580.539 22.8755C580.385 22.4756 580.151 22.1088 579.85 21.796C579.206 21.2271 578.363 20.9115 577.488 20.9115C576.614 20.9115 575.771 21.2271 575.126 21.796C574.822 22.1065 574.586 22.4729 574.432 22.8734C574.279 23.2739 574.211 23.7001 574.232 24.1265C574.215 24.5526 574.285 24.9777 574.439 25.3775C574.593 25.7774 574.826 26.1442 575.127 26.457C575.436 26.7534 575.806 26.985 576.212 27.1372C576.619 27.2894 577.054 27.3589 577.489 27.3413C577.926 27.3646 578.362 27.2978 578.77 27.1453C579.177 26.9927 579.546 26.7581 579.851 26.457H579.85ZM575.889 29.7068C575.227 29.3689 574.673 28.8623 574.289 28.2422H574.231V29.5797C574.229 29.6515 574.198 29.7197 574.145 29.7702C574.092 29.8208 574.021 29.8498 573.946 29.8514H571.298C571.224 29.8498 571.152 29.8208 571.099 29.7702C571.046 29.7197 571.016 29.6515 571.013 29.5797V12.7835C571.016 12.7118 571.047 12.6437 571.1 12.5933C571.153 12.5429 571.224 12.5141 571.298 12.5127H573.946C574.021 12.5138 574.092 12.5425 574.145 12.5927C574.198 12.6429 574.229 12.7109 574.232 12.7826V20.0265H574.289C574.674 19.4071 575.228 18.9007 575.889 18.5619C576.639 18.1989 577.469 18.0189 578.308 18.0377C579.335 18.0258 580.346 18.2759 581.24 18.7627C582.134 19.2501 582.862 19.9776 583.334 20.8564C583.87 21.8733 584.132 23.0033 584.097 24.1431C584.121 25.282 583.86 26.4098 583.335 27.4307C582.857 28.3067 582.13 29.0335 581.241 29.5263C580.346 30.0112 579.334 30.2603 578.308 30.2485C577.468 30.2551 576.639 30.0688 575.888 29.705L575.889 29.7068ZM588.555 29.8533H585.909C585.834 29.8521 585.762 29.8231 585.709 29.7723C585.655 29.7215 585.625 29.6528 585.623 29.5806V12.7844C585.625 12.7124 585.656 12.6441 585.71 12.5936C585.763 12.5432 585.835 12.5145 585.91 12.5136H588.556C588.63 12.5152 588.701 12.544 588.754 12.5942C588.807 12.6443 588.838 12.712 588.841 12.7835V29.5797C588.842 29.6326 588.826 29.6846 588.796 29.7291C588.767 29.7736 588.724 29.8085 588.673 29.8293C588.636 29.8449 588.596 29.8524 588.556 29.8514V29.8533H588.555ZM594.783 21.0573C594.323 21.4116 594.006 21.9104 593.888 22.4666C593.88 22.5068 593.881 22.5482 593.892 22.5878C593.902 22.6274 593.922 22.6642 593.95 22.6955C593.977 22.7267 594.012 22.7516 594.05 22.7682C594.089 22.7849 594.131 22.793 594.174 22.7918H599.202C599.243 22.7919 599.283 22.7838 599.32 22.7679C599.357 22.752 599.39 22.7288 599.417 22.6998C599.444 22.6707 599.464 22.6365 599.476 22.5993C599.489 22.5621 599.493 22.5229 599.488 22.4841C599.412 21.9442 599.134 21.4496 598.706 21.0932C598.155 20.6713 597.467 20.453 596.764 20.4779C596.056 20.4594 595.361 20.6621 594.783 21.0563L594.782 21.0573H594.783ZM601.221 19.6488C602.249 20.7127 602.763 22.217 602.763 24.1624V24.4895C602.76 24.5612 602.729 24.6291 602.675 24.6794C602.622 24.7296 602.551 24.7582 602.477 24.7593H594.079C594.037 24.7601 593.996 24.7694 593.959 24.7867C593.921 24.8039 593.887 24.8287 593.86 24.8593C593.833 24.8899 593.813 24.9258 593.801 24.9644C593.79 25.0031 593.787 25.0437 593.792 25.0836C593.902 25.7601 594.261 26.376 594.803 26.8181C595.47 27.3204 596.301 27.5762 597.146 27.5394C598.409 27.5224 599.616 27.0374 600.517 26.1853C600.547 26.1591 600.582 26.1396 600.621 26.1281C600.659 26.1165 600.7 26.1133 600.74 26.1186C600.78 26.1238 600.818 26.1375 600.852 26.1586C600.886 26.1797 600.915 26.2076 600.936 26.2406L602.212 27.9917C602.248 28.0475 602.264 28.1134 602.257 28.179C602.25 28.2445 602.221 28.306 602.173 28.3537C601.54 28.8736 600.843 29.3166 600.098 29.6727C599.17 30.0715 598.162 30.2687 597.145 30.2503C595.954 30.2763 594.776 30.0151 593.717 29.4904C592.762 29.0074 591.975 28.267 591.45 27.3597C590.896 26.3868 590.614 25.2916 590.632 24.1818C590.611 23.0702 590.879 21.9712 591.413 20.9854C591.913 20.0811 592.673 19.3351 593.603 18.8373C594.613 18.3068 595.749 18.0388 596.898 18.0598C598.764 18.0387 600.193 18.5812 601.221 19.6479V19.6488ZM536.272 14.3762C536.278 14.7463 536.169 15.1096 535.96 15.4203C535.751 15.731 535.452 15.975 535.099 16.1215C534.746 16.2681 534.356 16.3105 533.978 16.2436C533.6 16.1766 533.251 16.0032 532.975 15.7453C532.7 15.4874 532.51 15.1566 532.429 14.7946C532.349 14.4327 532.382 14.0559 532.523 13.7119C532.665 13.3679 532.91 13.0721 533.226 12.8619C533.542 12.6517 533.916 12.5366 534.301 12.5311H534.31C534.823 12.5288 535.316 12.7207 535.683 13.0653C536.05 13.41 536.262 13.8798 536.272 14.3734V14.3753V14.3762Z" fill="#181D26"/>
<path d="M478.592 5.05587L462.823 11.2671C461.946 11.6128 461.955 12.7985 462.838 13.1314L478.673 19.109C480.064 19.6342 481.614 19.6342 483.005 19.109L498.84 13.1314C499.723 12.7985 499.732 11.6128 498.855 11.2674L483.086 5.05587C481.647 4.48919 480.031 4.48919 478.592 5.05587Z" fill="#FCB400"/>
<path d="M482.242 22.3737V37.3065C482.242 38.0166 482.995 38.5031 483.688 38.2414L501.333 31.7218C501.53 31.6476 501.699 31.5187 501.818 31.352C501.937 31.1853 502 30.9885 502 30.7869V15.8543C502 15.144 501.248 14.6577 500.554 14.9194L482.909 21.439C482.712 21.5133 482.544 21.6422 482.425 21.8089C482.306 21.9756 482.242 22.1724 482.242 22.3739" fill="#18BFFF"/>
<path d="M478.123 23.1436L472.886 25.5504L472.354 25.795L461.3 30.837C460.599 31.1588 459.705 30.6727 459.705 29.9317V15.9162C459.705 15.6481 459.849 15.4167 460.043 15.2426C460.122 15.1673 460.212 15.1029 460.31 15.0514C460.574 14.9005 460.951 14.8603 461.271 14.9809L478.035 21.3034C478.887 21.6252 478.954 22.7617 478.123 23.1438" fill="#F82B60"/>
<path d="M478.123 23.1436L472.886 25.5504L460.043 15.2424C460.122 15.1671 460.213 15.1029 460.311 15.0514C460.575 14.9005 460.951 14.8603 461.272 14.9809L478.035 21.3034C478.887 21.6252 478.954 22.7617 478.123 23.1438" fill="black" fill-opacity="0.25"/>
<path fill-rule="evenodd" clip-rule="evenodd" d="M63.5199 159.11C62.509 158.291 60.7839 157.882 58.3434 157.882H52.8389V174.267H56.9548V169.132H58.7986C61.0363 169.132 62.6774 168.657 63.7216 167.708C64.8979 166.644 65.4898 165.227 65.4898 163.458C65.4898 161.624 64.8329 160.175 63.5199 159.11ZM58.6962 165.424H56.9548V161.589H58.5193C60.4224 161.589 61.3739 162.232 61.3739 163.518C61.3739 164.788 60.4807 165.423 58.6962 165.423V165.424ZM72.533 157.881H68.2411V174.266H77.5078V170.558H72.533V157.881ZM85.9166 157.881L79.1746 174.266H83.7955L84.6791 171.884H90.5374L91.3455 174.266H96.018L89.3239 157.881H85.9166ZM85.8659 168.567L87.6341 162.966L89.3746 168.567H85.8659Z" fill="#111111"/>
<path fill-rule="evenodd" clip-rule="evenodd" d="M98.162 174.268H102.455V157.882H98.162V174.268ZM119.121 160.953C118.579 160.196 117.883 159.553 117.075 159.062C115.779 158.276 114.011 157.883 111.772 157.883H106.117V174.268H112.732C115.123 174.268 117.041 173.515 118.489 172.008C119.937 170.502 120.66 168.503 120.66 166.013C120.66 164.033 120.147 162.346 119.12 160.953H119.121ZM112.252 170.558H110.409V161.592H112.278C113.591 161.592 114.6 161.988 115.308 162.777C116.015 163.567 116.369 164.687 116.369 166.137C116.369 169.084 114.997 170.558 112.252 170.558ZM17.9892 144.126L4.0778 147.636L0.243965 161.111L5.03888 165.853L0.166504 170.517L3.77465 184.051L17.6258 187.779L22.4991 183.114L27.294 187.855L41.2054 184.346L45.0383 170.87L40.2443 166.129L45.1167 161.466L41.5086 147.93L27.6555 144.202L22.7841 148.866L17.9892 144.126ZM9.45223 150.228L16.7804 148.378L19.985 151.547L15.3115 156.02L9.45223 150.228ZM25.5392 151.589L28.7954 148.473L36.092 150.437L30.1371 156.136L25.5392 151.589ZM4.63437 160.005L6.65313 152.907L12.5105 158.699L7.83799 163.172L4.63437 160.005ZM32.8903 158.86L38.8453 153.159L40.7445 160.288L37.4892 163.405L32.8903 158.86ZM18.0657 158.743L22.7391 154.27L27.3361 158.816L22.6636 163.289L18.0657 158.743ZM10.5931 165.895L15.2656 161.422L19.8654 165.969L15.191 170.442L10.5931 165.895ZM25.4187 166.012L30.0912 161.539L34.6891 166.086L30.0157 170.559L25.4187 166.012ZM4.53682 171.693L7.794 168.575L12.391 173.123L6.43796 178.821L4.53682 171.693ZM17.9452 173.165L22.6187 168.692L27.2166 173.239L22.5441 177.712L17.9452 173.165ZM32.7698 173.283L37.4433 168.81L40.6479 171.978L38.6301 179.075L32.7698 173.283ZM9.19116 181.546L15.1451 175.845L19.745 180.391L16.4878 183.509L9.19116 181.546ZM25.2982 180.435L29.9707 175.962L35.8291 181.755L28.5018 183.603L25.2982 180.435Z" fill="#111111"/>
<path d="M0.166504 76.7891H10.5707V109.213H0.166504V76.7891ZM59.6188 76.7891H41.7831V87.1059H49.2146V109.213H59.6188V87.1059H67.0503V76.7891H59.6188ZM87.8586 76.7891H70.0229V87.1059H77.4545V109.213H87.8586V87.1059H95.2902V76.7891H87.8586ZM116.098 76.7891H98.2628V87.1059H105.694V109.213H116.098V87.1059H123.53V76.7891H116.098ZM38.8105 87.1059V76.7891H15.0296V109.213H25.4337V100.37H34.3516V90.0536H25.4337V87.1059H38.8105Z" fill="#222222"/>
<path d="M26.0263 10.2889L29.1917 4.99695C29.6367 4.25397 29.7574 3.37129 29.5273 2.54267C29.2973 1.71405 28.7353 1.00721 27.9648 0.577311C27.5833 0.365053 27.1621 0.227337 26.7253 0.172046C26.2885 0.116755 25.8447 0.144973 25.4192 0.255086C24.9937 0.365199 24.595 0.555044 24.2458 0.813759C23.8966 1.07247 23.6037 1.39498 23.3841 1.76282L20.2187 7.05293C13.472 5.00155 5.92001 7.65628 2.23632 13.8113C1.12391 15.6664 0.440754 17.731 0.23361 19.864C0.0264671 21.9969 0.300229 24.1478 1.03616 26.1694L6.88205 16.3998C7.53907 15.2943 8.41721 14.3253 9.46564 13.549C10.5141 12.7726 11.712 12.2043 12.99 11.877C14.2656 11.5437 15.5973 11.4578 16.9076 11.6243C18.218 11.7909 19.4809 12.2064 20.6232 12.8469C25.4267 15.5228 27.0783 21.4706 24.305 26.104C21.5317 30.7392 15.3674 32.3327 10.5648 29.6568L13.9176 24.0535C14.2989 24.266 14.72 24.4039 15.1568 24.4594C15.5935 24.5149 16.0374 24.4868 16.4628 24.3769C16.8883 24.267 17.2871 24.0772 17.6364 23.8186C17.9857 23.56 18.2786 23.2376 18.4983 22.8698C18.9426 22.1268 19.0629 21.2443 18.8327 20.416C18.6025 19.5877 18.0407 18.8811 17.2704 18.4511C16.889 18.2388 16.4679 18.101 16.0312 18.0456C15.5945 17.9901 15.1507 18.0182 14.7253 18.1281C14.2998 18.2381 13.901 18.4277 13.5517 18.6863C13.2025 18.9448 12.9095 19.2671 12.6897 19.6348L1.99437 37.5077C1.54973 38.2506 1.42919 39.1331 1.65921 39.9615C1.88923 40.7898 2.45102 41.4965 3.22132 41.9264C3.60268 42.139 4.02383 42.2769 4.46065 42.3324C4.89747 42.3879 5.34135 42.3598 5.76688 42.2498C6.19241 42.1397 6.59122 41.9499 6.94044 41.6911C7.28967 41.4324 7.58245 41.1098 7.80202 40.7418L10.9683 35.4517C17.7141 37.5031 25.267 34.8484 28.9507 28.6924C32.6344 22.5373 31.2411 14.8992 26.0254 10.288L26.0263 10.2889ZM45.3313 21.1261C46.8298 21.1261 47.7842 20.4767 47.7842 18.9053C47.7842 17.3135 46.7858 16.7074 45.3313 16.7074H43.2676V21.1252H45.3313V21.1261ZM40.2284 14.1291H45.4174C48.4355 14.1291 50.9113 15.5744 50.9113 18.9053C50.9113 22.2361 48.4144 23.7044 45.4174 23.7044H43.2685V28.3755H40.2275V14.1291H40.2284ZM55.3763 14.1291H65.1469V16.7074H58.4155V19.9738H64.3446V22.4876H58.4155V25.7991H65.452V28.3755H55.3754V14.1291H55.3763ZM70.5672 14.1291H73.6073V25.7991H80.2957V28.3755H70.5672V14.1291ZM95.8491 21.2514C95.8491 18.5921 94.0254 16.5591 91.3334 16.5591C88.6395 16.5591 86.8168 18.5921 86.8168 21.2514C86.8168 23.9135 88.6395 25.9455 91.3334 25.9455C94.0254 25.9455 95.8491 23.9126 95.8491 21.2514ZM83.6897 21.2514C83.6897 17.0418 87.0769 13.9403 91.3334 13.9403C95.589 13.9403 98.9743 17.0418 98.9743 21.2514C98.9743 25.4629 95.589 28.5653 91.3334 28.5653C87.0779 28.5653 83.6897 25.4629 83.6897 21.2514ZM106.463 16.7074H102.252V14.1282H113.716V16.7074H109.504V28.3755H106.463V16.7074ZM129.131 21.2514C129.131 18.5921 127.308 16.5591 124.616 16.5591C121.922 16.5591 120.098 18.5921 120.098 21.2514C120.098 23.9135 121.922 25.9455 124.616 25.9455C127.308 25.9455 129.131 23.9126 129.131 21.2514ZM116.971 21.2514C116.971 17.0418 120.359 13.9403 124.616 13.9403C128.871 13.9403 132.259 17.0418 132.259 21.2514C132.259 25.4629 128.871 28.5653 124.616 28.5653C120.359 28.5653 116.971 25.4629 116.971 21.2514ZM141.544 21.7543C140.807 21.0847 139.785 19.8061 139.785 19.8061C139.785 19.8061 140.004 21.3776 140.004 22.4038V28.3764H137.159V14.0029H137.462L144.91 20.7503C145.627 21.3988 146.646 22.6967 146.646 22.6967C146.646 22.6967 146.452 21.0847 146.452 20.1009V14.1291H149.296V28.5008H148.994L141.544 21.7543Z" fill="black"/>
<path d="M227.003 7.99219L221.507 28.5617L242.862 33.8554L248.358 13.2859L227.003 7.99219ZM297.876 10.2956V31.5353H319.927V10.2956H297.876ZM322.562 10.2956L331.175 20.787L322.562 31.5353H333.158L336.532 27.3159L340.025 31.5353H350.709L341.83 20.7303L350.177 10.2956H339.581L336.473 14.2018L333.217 10.2956H322.562ZM196.582 10.2961V31.5358H206.35V23.6673C208.984 23.6673 210.227 25.8906 210.641 31.5358H220.763C220.32 27.4589 218.869 23.9526 216.502 21.3582C218.129 20.2748 219.018 18.6207 219.018 16.6537C219.018 13.489 216.561 10.2961 210.996 10.2961H196.582ZM250.634 10.2961V31.5358H266.025C271.176 31.5358 273.573 28.9416 273.573 25.6628C273.573 23.8381 272.893 22.2132 270.11 20.7879C272.33 19.5618 272.981 17.965 272.981 16.2258C272.981 13.774 271.56 10.2961 264.427 10.2961H250.634ZM276.565 10.2961V31.5358H294.886V26.2049H286.332V10.2961H276.565ZM260.402 14.5726H260.994C262.977 14.5726 263.569 15.456 263.569 16.6252C263.569 18.1359 262.77 18.7063 260.639 18.7063H260.402V14.5726ZM206.35 14.6578H206.942C208.777 14.6578 209.25 15.8555 209.25 16.768C209.25 18.1364 208.392 18.7634 206.616 18.7634H206.35V14.6578ZM233.384 18.3988L237.552 19.4317L236.48 23.4474L232.311 22.414L233.384 18.3988ZM306.748 18.842H311.053V22.9876H306.748V18.842ZM260.402 22.2702H261.083C263.125 22.2702 263.805 23.2677 263.805 24.665C263.805 26.2615 262.947 26.8604 260.698 26.8604H260.402V22.2702Z" fill="#E2231A"/>
<path d="M521.286 160.969V171.434H523.99C524.68 171.424 525.36 171.281 525.992 171.012C526.623 170.744 527.193 170.356 527.666 169.872C528.638 168.879 529.17 167.559 529.148 166.193C529.169 165.514 529.05 164.839 528.8 164.205C528.549 163.57 528.171 162.99 527.687 162.498C527.211 162.013 526.638 161.627 526.002 161.364C525.366 161.1 524.681 160.966 523.99 160.968H521.288L521.286 160.969ZM523.99 157.688C529.028 157.688 532.84 161.456 532.84 166.193C532.84 170.929 529.028 174.719 523.99 174.719H518.027C517.97 174.718 517.914 174.707 517.862 174.685C517.81 174.663 517.763 174.632 517.723 174.593C517.683 174.553 517.652 174.507 517.631 174.456C517.61 174.405 517.599 174.351 517.6 174.296V158.128C517.6 157.894 517.792 157.704 518.027 157.704L523.99 157.688ZM545.828 171.798C548.116 171.805 550.182 170.446 551.063 168.356C551.495 167.335 551.61 166.215 551.395 165.131C551.181 164.048 550.645 163.048 549.853 162.253C549.075 161.471 548.07 160.935 546.969 160.716C545.869 160.497 544.726 160.605 543.691 161.026C541.576 161.888 540.195 163.928 540.191 166.193C540.191 169.28 542.711 171.784 545.829 171.798H545.828ZM545.829 157.302C551.132 157.302 555.187 161.336 555.187 166.193C555.187 171.049 551.132 175.083 545.828 175.083C540.524 175.083 536.504 171.069 536.504 166.193C536.504 161.316 540.559 157.302 545.828 157.302H545.829ZM568.069 171.798C571.189 171.79 573.713 169.284 573.711 166.197C573.706 163.107 571.177 160.606 568.058 160.604C564.937 160.604 562.406 163.105 562.402 166.193C562.402 167.68 562.999 169.107 564.062 170.158C564.582 170.676 565.205 171.088 565.893 171.37C566.581 171.651 567.321 171.797 568.068 171.798H568.069ZM568.068 157.302C573.355 157.302 577.409 161.316 577.409 166.193C577.409 171.069 573.338 175.083 568.068 175.083C562.799 175.083 558.71 171.069 558.71 166.193C558.71 161.316 562.765 157.302 568.068 157.302ZM589.775 160.969H585.963V165.473H589.775C590.076 165.486 590.377 165.439 590.659 165.335C590.94 165.232 591.197 165.073 591.413 164.87C591.854 164.458 592.105 163.886 592.11 163.284C592.121 162.979 592.069 162.675 591.955 162.39C591.841 162.105 591.669 161.845 591.449 161.626C591.232 161.411 590.972 161.241 590.683 161.129C590.395 161.016 590.086 160.963 589.775 160.973V160.969ZM582.276 158.128C582.276 157.894 582.469 157.704 582.704 157.704H589.881C593.303 157.704 595.779 160.185 595.779 163.301C595.805 165.409 594.612 167.345 592.709 168.288L596.019 174.08C596.064 174.147 596.09 174.224 596.093 174.304C596.096 174.384 596.076 174.463 596.035 174.533C595.995 174.601 595.936 174.657 595.864 174.694C595.792 174.731 595.711 174.747 595.63 174.74H592.725C592.645 174.741 592.565 174.72 592.497 174.68C592.428 174.639 592.372 174.581 592.336 174.511L589.146 168.779H585.95V174.282C585.95 174.337 585.94 174.392 585.919 174.443C585.898 174.494 585.867 174.541 585.827 174.58C585.787 174.62 585.74 174.651 585.688 174.673C585.635 174.695 585.579 174.706 585.522 174.707H582.724C582.667 174.706 582.61 174.695 582.558 174.673C582.506 174.651 582.458 174.62 582.419 174.58C582.379 174.541 582.348 174.494 582.327 174.443C582.306 174.392 582.295 174.337 582.296 174.282L582.277 158.13L582.276 158.128ZM605.39 161.049V171.515H608.092C608.782 171.506 609.463 171.363 610.094 171.096C610.726 170.829 611.296 170.442 611.77 169.958C612.742 168.966 613.275 167.647 613.255 166.282C613.277 165.603 613.16 164.926 612.909 164.291C612.659 163.655 612.282 163.074 611.798 162.58C611.321 162.094 610.747 161.708 610.11 161.445C609.473 161.182 608.786 161.047 608.093 161.05L605.39 161.049ZM608.092 157.764C613.131 157.764 616.943 161.536 616.943 166.282C616.943 171.028 613.131 174.8 608.092 174.8H602.148C602.091 174.799 602.034 174.788 601.982 174.766C601.93 174.744 601.882 174.713 601.843 174.673C601.803 174.634 601.772 174.587 601.751 174.536C601.73 174.485 601.719 174.431 601.72 174.376V158.209C601.72 157.974 601.912 157.784 602.148 157.784L608.093 157.764H608.092ZM628.186 161.926L626.095 167.522H630.273L628.186 161.926ZM624.868 170.685L623.499 174.41C623.472 174.498 623.415 174.574 623.337 174.627C623.26 174.68 623.166 174.707 623.072 174.703H620.102C620.027 174.71 619.95 174.697 619.882 174.665C619.813 174.634 619.755 174.585 619.712 174.525C619.669 174.463 619.642 174.392 619.636 174.318C619.629 174.244 619.643 174.169 619.675 174.101L626.091 157.95C626.121 157.865 626.179 157.791 626.256 157.741C626.333 157.691 626.425 157.666 626.518 157.671H629.84C629.934 157.666 630.026 157.69 630.104 157.741C630.181 157.791 630.239 157.865 630.269 157.95L636.685 174.101C636.717 174.169 636.73 174.244 636.723 174.318C636.717 174.392 636.69 174.463 636.646 174.525C636.604 174.585 636.545 174.633 636.476 174.665C636.408 174.696 636.332 174.709 636.256 174.702H633.288C633.193 174.705 633.1 174.679 633.023 174.626C632.945 174.573 632.888 174.497 632.861 174.409L631.492 170.683H624.868V170.685ZM640.127 162.289C640.127 159.615 642.463 157.302 646.15 157.302C648.136 157.259 650.059 157.976 651.499 159.297C651.543 159.337 651.578 159.385 651.602 159.438C651.626 159.492 651.638 159.55 651.638 159.608C651.638 159.666 651.626 159.724 651.602 159.777C651.578 159.831 651.543 159.879 651.499 159.919L649.855 161.536C649.815 161.575 649.768 161.606 649.716 161.628C649.664 161.649 649.608 161.66 649.551 161.66C649.495 161.66 649.439 161.649 649.387 161.628C649.334 161.606 649.287 161.575 649.248 161.536C648.473 160.835 647.456 160.438 646.394 160.422C644.919 160.422 643.829 161.27 643.829 162.248C643.829 165.409 652.546 163.585 652.546 169.668C652.541 172.751 650.188 175.083 646.028 175.083C644.872 175.095 643.726 174.882 642.658 174.457C641.59 174.032 640.621 173.405 639.809 172.611C639.765 172.571 639.73 172.523 639.706 172.469C639.682 172.416 639.67 172.358 639.67 172.3C639.67 172.242 639.682 172.184 639.706 172.13C639.73 172.077 639.765 172.029 639.809 171.989L641.4 170.413C641.439 170.372 641.487 170.339 641.541 170.317C641.594 170.294 641.652 170.283 641.71 170.283C641.768 170.283 641.826 170.294 641.879 170.317C641.933 170.339 641.981 170.372 642.02 170.413C643.021 171.371 644.37 171.915 645.779 171.93C647.623 171.93 648.837 170.956 648.837 169.736C648.837 166.573 640.125 168.399 640.125 162.314L640.127 162.289ZM668.352 158.107V164.499H660.974V158.107C660.975 158.052 660.964 157.998 660.943 157.947C660.922 157.896 660.891 157.849 660.851 157.81C660.812 157.771 660.764 157.739 660.712 157.718C660.66 157.696 660.604 157.685 660.547 157.684H657.748C657.691 157.685 657.635 157.696 657.583 157.718C657.531 157.739 657.483 157.771 657.444 157.81C657.404 157.849 657.373 157.896 657.352 157.947C657.331 157.998 657.32 158.052 657.321 158.107V174.256C657.321 174.49 657.514 174.68 657.748 174.68H660.547C660.781 174.68 660.974 174.49 660.974 174.256V167.763H668.347V174.256C668.347 174.49 668.54 174.68 668.774 174.68H671.573C671.808 174.68 672 174.49 672 174.256V158.107C672.001 158.052 671.99 157.998 671.969 157.947C671.948 157.896 671.917 157.849 671.877 157.81C671.837 157.771 671.79 157.739 671.738 157.718C671.686 157.696 671.629 157.685 671.573 157.684H668.774C668.66 157.687 668.552 157.733 668.473 157.812C668.394 157.891 668.351 157.997 668.352 158.107ZM501.891 159.839C499.95 156.367 496.152 154.205 492.022 154.218H460.772C460.561 154.219 460.355 154.279 460.18 154.392C460.004 154.506 459.867 154.666 459.785 154.854C459.705 155.04 459.684 155.246 459.725 155.444C459.766 155.642 459.868 155.824 460.017 155.966L466.824 162.486C467.425 163.063 468.244 163.387 469.096 163.387H491.126C492.696 163.371 493.98 164.571 493.996 166.065C494.013 167.559 492.754 168.783 491.184 168.798H475.996C475.785 168.798 475.578 168.858 475.402 168.971C475.226 169.083 475.089 169.244 475.006 169.431C474.925 169.618 474.903 169.824 474.944 170.023C474.985 170.222 475.087 170.404 475.236 170.546L482.048 177.071C482.653 177.648 483.469 177.972 484.32 177.971H491.189C500.127 177.971 506.884 168.87 501.891 159.835" fill="#FF3008"/>
</svg>
