<svg xmlns="http://www.w3.org/2000/svg" viewBox="0 0 600 85.1"><g id="Layer_2" data-name="Layer 2"><g id="layer"><path d="M13.6,23.6C13.6,14.2,8.9,6.5,0,0H20.6A29.8,29.8,0,0,1,32.3,23.6,29.51,29.51,0,0,1,20.6,47.2c6.7,2.8,10.5,9.6,10.5,19.3V85.1H12.5V66.5c0-9.3-4.4-15.8-12.4-19.3C8.9,40.6,13.6,32.9,13.6,23.6Zm40.4,0C54,14.2,49.3,6.5,40.4,0H61a29.65,29.65,0,0,1,0,47.2c6.7,2.8,10.5,9.6,10.5,19.3V85.1H52.9V66.5c0-9.3-4.4-15.8-12.4-19.3C49.3,40.6,54,32.9,54,23.6Zm40.4,0c0-9.4-4.7-17.1-13.6-23.6h20.6a29.65,29.65,0,0,1,0,47.2c6.7,2.8,10.5,9.6,10.5,19.3V85.1H93.3V66.5c0-9.3-4.4-15.8-12.4-19.3C89.7,40.6,94.4,32.9,94.4,23.6Zm75.5,46H155.7V15.5h34.7c16.7,0,24.9,6.2,24.9,16.3,0,6.9-4,12.1-11.6,14.7,7.8,1.2,11.3,5.3,11.3,12.6V69.6H200.8V59.7c0-6.2-3.1-8.7-11.3-8.7H169.9Zm19.8-46.3H169.9V43.1h19.6c7.1,0,11.6-3.9,11.6-10.1S197,23.3,189.7,23.3Zm50.2-7.9H225.8V69.5h14.1Zm43.4,36.5H266.1V69.5H252V15.4h31.7c16.7,0,25.5,7,25.5,18.1C309.1,45.1,300.2,51.9,283.3,51.9ZM283,23.3H266.1V44h16.8c7.3,0,11.8-3.7,11.8-10.4S290.1,23.3,283,23.3Zm65.9,28.6H331.7V69.5H317.5V15.4h31.7c16.7,0,25.5,7,25.5,18.1C374.7,45.1,365.7,51.9,348.9,51.9Zm-.3-28.6H331.7V44h16.8c7.3,0,11.8-3.7,11.8-10.4S355.7,23.3,348.6,23.3Zm48.6-7.9V61.5h35.3v8H383.1V15.4Zm58.3,0H441.4V69.5h14.1Zm21.3,18.1v36h-9.3V15.4h10.6l38.5,36v-36h9.3V69.5H515.3ZM572,21.8c-13.4,0-22.2,8.5-22.2,21.2,0,12.5,8.4,20.3,21.4,20.3h.9a46.8,46.8,0,0,0,14-2.4V46.3H563.3V38.5H600V63.9c-7.6,3.9-19.1,7-28.4,7h-1.2c-21.4,0-35.3-11.3-35.3-27.7C535.1,27,549.3,14,571.2,14h1.2a58.18,58.18,0,0,1,27.2,7.3l-4,6.6c-6.9-3.8-15.2-6.2-22.5-6.2H572Z"/></g></g></svg>