<svg xmlns="http://www.w3.org/2000/svg" viewBox="0 0 354.54 132.94"><defs><style>.cls-1{fill-rule:evenodd;}</style></defs><g id="Layer_2" data-name="Layer 2"><g id="Layer_1-2" data-name="Layer 1"><g id="Layer_2-2" data-name="Layer 2"><g id="svg8"><g id="layer1"><g id="g832"><path id="path817" d="M287.11,77.92l5.79-1.31.57-.15A6.26,6.26,0,0,0,298,69v-.1a6.45,6.45,0,0,0-1-2.12,8.11,8.11,0,0,0-2.36-2,22,22,0,0,0-3.36-1.52L285,61c-3.56-1.3-7.12-2.57-10.72-3.8-2.33-.82-4.31-1.53-6-2.06l-1-.29a17.26,17.26,0,0,0-4.77-.89,5.78,5.78,0,0,0-2.4.43,6.16,6.16,0,0,0-2.1,1.46,11.06,11.06,0,0,0-.81,1,11.46,11.46,0,0,0-1.22,2.39,31.75,31.75,0,0,0-1.74,10.62c0,3.26.11,7.44,1.94,10.28A6.11,6.11,0,0,0,257.87,82a7.51,7.51,0,0,0,4,1.1,20.67,20.67,0,0,0,6-.8L287.11,78Zm64.61-30.17a32.24,32.24,0,0,0-6.29-8.8,8.36,8.36,0,0,0-1.07-.9,12.66,12.66,0,0,0-1.08-.72,10.88,10.88,0,0,0-1.2-.56,6.21,6.21,0,0,0-2.52-.41,5.86,5.86,0,0,0-2.36.65,17.62,17.62,0,0,0-3.89,2.85c-.22.22-.49.46-.74.69-1.31,1.21-2.77,2.7-4.51,4.44q-4,4-7.94,8l-4.7,4.79a21.66,21.66,0,0,0-2.34,2.81,7.71,7.71,0,0,0-1.24,2.81,6.09,6.09,0,0,0,.06,2.33v.1a6.39,6.39,0,0,0,7.43,4.75l.58-.11,25-5.68a20.28,20.28,0,0,0,5.75-1.87,7.37,7.37,0,0,0,3.1-2.7,6,6,0,0,0,.73-2.41c.39-3.35-1.39-7.15-2.83-10.09ZM306.9,58c1.82-2.24,1.82-5.57,2-8.3.55-9.11,1.12-18.22,1.58-27.33a96.46,96.46,0,0,0,.34-10.34c-.17-2.86-.19-6.16-2-8.51-3.26-4.16-10.21-3.82-15-3.17-1.46.2-2.91.47-4.34.8s-2.88.71-4.27,1.16c-4.55,1.46-10.95,4.14-12,9.29-.61,2.9.84,5.88,2,8.53A91.54,91.54,0,0,0,280,29.35c4.48,8,9,16,13.58,23.9,1.36,2.37,2.84,5.38,5.47,6.61l.53.2a6.45,6.45,0,0,0,3.69.24h.22a6.36,6.36,0,0,0,3-1.75q.21-.19.42-.42Zm-2.17,24.42a5.86,5.86,0,0,0-6.44-2.13,5.73,5.73,0,0,0-.81.33,7.58,7.58,0,0,0-1.13.69,15.39,15.39,0,0,0-2.73,2.74,8.12,8.12,0,0,1-.62.8l-4,5.44c-2.28,3-4.54,6.1-6.77,9.2-1.46,2-2.71,3.7-3.71,5.19-.19.28-.38.59-.56.85a16.31,16.31,0,0,0-2.22,4.31,5.56,5.56,0,0,0-.24,2.43,6.06,6.06,0,0,0,.85,2.4c.25.37.51.72.79,1.06a11.21,11.21,0,0,0,2,1.83,35.38,35.38,0,0,0,9,4.32,32,32,0,0,0,8.24,1.54,8.54,8.54,0,0,0,1.43,0c.44,0,.88-.11,1.31-.19a10.36,10.36,0,0,0,1.29-.36,6.38,6.38,0,0,0,2.18-1.37,5.66,5.66,0,0,0,1.33-2,17,17,0,0,0,1-4.73c0-.31.06-.67.09-1,.16-1.78.23-3.88.35-6.33.2-3.79.35-7.55.47-11.33l.26-6.72a15.84,15.84,0,0,0-.43-4.8,7.52,7.52,0,0,0-.92-2.09ZM350.19,93a16.85,16.85,0,0,0-3.9-2.92l-.89-.52c-1.56-.93-3.45-1.9-5.65-3.07-3.38-1.83-6.76-3.6-10.18-5.36l-6-3.14a8,8,0,0,1-.93-.45A14.9,14.9,0,0,0,319,76.23a8.56,8.56,0,0,0-1.33-.13,6.31,6.31,0,0,0-.87,0,5.74,5.74,0,0,0-4.84,4.69,7.13,7.13,0,0,0,.09,2.26,15.56,15.56,0,0,0,1.76,4.5l3.24,6q2.69,5,5.47,10c1.2,2.16,2.2,4,3.13,5.54.18.29.38.6.53.87a16.93,16.93,0,0,0,3,3.84,5.9,5.9,0,0,0,4.69,1.55,12,12,0,0,0,1.31-.23,12.56,12.56,0,0,0,2.57-1,32,32,0,0,0,6.71-4.93,35.22,35.22,0,0,0,6.19-7.77,10,10,0,0,0,.6-1.28,12.81,12.81,0,0,0,.4-1.24c.1-.42.17-.85.23-1.29a6.15,6.15,0,0,0-.29-2.52A5.86,5.86,0,0,0,350.26,93Z"/><path id="path819" class="cls-1" d="M142.43,35.31a9,9,0,0,1,8.94-8.87,9.16,9.16,0,0,1,8.95,8.94v69.28a8.95,8.95,0,0,1-17.89.09ZM134.11,78.1a8.08,8.08,0,0,1-7.87,8.27h-.52c-6.4,0-12.79,0-19.19.07s-12.79,0-19.19.07a16,16,0,0,0,4.19,6.74,16.47,16.47,0,0,0,3.64,2.61,13.63,13.63,0,0,0,6.71,1.86,21,21,0,0,0,9.58-2.61l.25-.13a24,24,0,0,1,6.53-2.56A7.85,7.85,0,0,1,124.6,94a6.65,6.65,0,0,1,2.17,7.08,13.52,13.52,0,0,1-6.22,7.23,31,31,0,0,1-4.9,2.26,37.55,37.55,0,0,1-13.49,2.07,31.41,31.41,0,0,1-3.5-.13,33,33,0,0,1-3.7-.69A26,26,0,0,1,89.37,110a31,31,0,0,1-5.11-2.82,31.57,31.57,0,0,1-8.17-8.33,32,32,0,0,1-5.18-19.33A33.29,33.29,0,0,1,77.49,61a13.44,13.44,0,0,1,1.42-1.79c.21-.24.41-.46.6-.69,5-6,11.7-7.91,14.46-8.7h.15a31.94,31.94,0,0,1,17.13,0,33.59,33.59,0,0,1,14.61,8.74,29.7,29.7,0,0,1,2,2.48,32.57,32.57,0,0,1,5.37,11h0a23,23,0,0,1,.84,6.12ZM93,66.75a15.49,15.49,0,0,0-5.45,8.67h30.48a15.91,15.91,0,0,0-5.52-8.67,16.19,16.19,0,0,0-9.79-3.44A15.92,15.92,0,0,0,93,66.75Zm115.9-18.23a27.48,27.48,0,0,0-20.41,9.22v-.21A8.92,8.92,0,0,0,170.7,58v66.11a8.85,8.85,0,0,0,8.89,8.81h.06a8.85,8.85,0,0,0,8.94-8.76h0V103.49A27.65,27.65,0,0,0,209,112.71c16,0,29-14.24,29-32S225,48.52,209,48.52ZM205,98.33c-9.09,0-16.5-7.78-16.5-17.47s7.34-17.55,16.5-17.55,16.5,7.78,16.5,17.55S214.15,98.33,205,98.33Zm-147.57-13-2.93,6.33c-1.33,2.75-2.66,5.57-3.92,8.39L49.4,102.7c-5.59,12.2-12.22,26.68-26.68,29.75-7,1.52-17.55-.55-21.46-7s1.89-14,9.37-12.31a16.38,16.38,0,0,1,3.51,1.4c1.95,1,3.92,1.92,6.06,1.49s3.29-1.79,4.9-3.65a17.15,17.15,0,0,0,3.63-6.81l-.1-.24-.11-.24c-1.82-3.33-3.41-6.31-4.73-8.8q-1.12-2.1-2.26-4.2l-3.05-5.68c-2.23-4.15-2.6-4.84-3.59-6.63q-3.25-6-6.85-11.91c-2.59-4.26-5.24-9-3.08-14A8.61,8.61,0,0,1,15.48,49c4.5,1.34,6.49,5.55,8.35,9.47.34.71.67,1.42,1,2.09,3,5.85,5.94,11.7,8.87,17.54.26.58.65,1.37,1.14,2.34s.92,1.86,1.45,3l.8,1.56.76,1.57q2-5,4.12-10t4.13-10a18.46,18.46,0,0,1,.85-2c.42-.91.95-2.08,1.52-3.4l.59-1.4c1.82-4.34,4-9.56,8.85-11A8.72,8.72,0,0,1,67.35,52a8.42,8.42,0,0,1,1.53,4.75c.06,3.65-1.73,7.57-3.28,10.93-.37.82-.73,1.6-1,2.34l-.18.41c-.43.94-1.59,3.5-3.59,7.71-.72,1.51-1.42,3-2.12,4.55Z"/></g></g></g></g></g></g></svg>